<svg width="1920" height="550" viewBox="0 0 1920 550" fill="none" xmlns="http://www.w3.org/2000/svg">
<rect width="1920" height="550" fill="white"/>
<g clip-path="url(#clip0)">
<path d="M1510 395.965H971V400H1510V395.965Z" fill="#85848B"/>
<path d="M1398.03 324.716C1398.03 327.82 1380.37 336.869 1359.39 336.869C1338.41 336.869 1322.07 327.82 1322.07 324.716C1322.07 321.613 1339.07 322.612 1360.07 322.612C1381.07 322.612 1398.03 321.607 1398.03 324.716Z" fill="#504F60"/>
<path opacity="0.2" d="M1398.03 324.716C1398.03 327.82 1380.37 336.869 1359.39 336.869C1338.41 336.869 1322.07 327.82 1322.07 324.716" fill="black"/>
<path d="M1186.76 267.762C1190.17 268.209 1193.7 268.493 1196.96 267.409C1197.48 267.246 1198.04 266.883 1197.99 266.357C1197.95 266.166 1197.87 265.986 1197.76 265.831C1196.53 263.942 1195.5 261.927 1194.68 259.818C1194.64 259.708 1194.58 259.612 1194.49 259.544C1194.38 259.505 1194.26 259.505 1194.16 259.544C1192.65 259.949 1191.35 260.944 1189.86 261.37C1189.1 261.584 1188.3 261.645 1187.52 261.549C1186.84 261.47 1185.92 260.896 1185.3 260.97C1185.65 263.269 1186.5 265.415 1186.76 267.762Z" fill="#00CB54"/>
<path d="M1251.16 261.938C1253.4 260.36 1255.73 258.703 1257.05 256.267C1257.15 256.121 1257.2 255.952 1257.21 255.777C1257.19 255.606 1257.12 255.442 1257.02 255.304C1255.76 253.249 1254.13 251.452 1252.23 250.006C1251.24 250.725 1250.34 251.574 1249.56 252.531C1248.99 253.142 1247.43 254.11 1247.42 255.041C1247.42 255.567 1248.01 256.177 1248.29 256.619C1248.67 257.187 1249.02 257.766 1249.36 258.355C1249.55 258.645 1251.34 261.822 1251.16 261.938Z" fill="#00CB54"/>
<path d="M1200.11 274.806C1200.15 275.348 1200.01 275.888 1199.7 276.332C1199.46 276.579 1199.16 276.76 1198.84 276.858C1194.08 278.605 1188.57 276.427 1183.82 278.147C1182.84 278.499 1181.92 279.01 1180.93 279.346C1179.77 279.707 1178.56 279.925 1177.34 279.999C1175.66 280.162 1173.97 280.267 1172.29 280.314C1171.01 280.407 1169.72 280.292 1168.48 279.972C1167.85 279.809 1167.27 279.514 1166.77 279.105C1166.27 278.696 1165.85 278.183 1165.55 277.6C1165.3 277.077 1165.24 276.472 1165.41 275.911C1165.48 275.719 1165.59 275.541 1165.72 275.385C1166.05 275.015 1166.42 274.7 1166.84 274.454L1168.59 273.296C1169.42 272.701 1170.31 272.217 1171.25 271.855C1171.94 271.623 1172.68 271.523 1173.38 271.329C1175.84 270.592 1177.72 268.593 1179.47 266.673L1181.85 264.069C1182.07 263.782 1182.35 263.55 1182.68 263.39C1183.01 263.277 1183.36 263.243 1183.7 263.29C1186.02 263.459 1188.25 264.227 1190.2 265.521C1190.7 265.903 1191.23 266.228 1191.8 266.489C1193.2 267.046 1194.99 266.625 1196.28 265.921C1196.89 265.584 1196.76 265.394 1197.01 264.795C1197.27 264.195 1197.9 263.811 1198.44 264.358C1198.61 264.547 1198.72 264.775 1198.78 265.021C1199.29 266.757 1199.1 268.625 1199.1 270.445C1199.08 270.73 1199.12 271.015 1199.2 271.287C1199.33 271.561 1199.49 271.822 1199.67 272.065C1199.71 272.13 1199.74 272.197 1199.77 272.265C1200.08 273.071 1200.2 273.943 1200.11 274.806V274.806Z" fill="#514E7F"/>
<path d="M1200.11 274.806C1200.15 275.348 1200.01 275.888 1199.7 276.332C1199.46 276.579 1199.16 276.76 1198.84 276.858C1194.08 278.605 1188.57 276.427 1183.82 278.147C1182.84 278.499 1181.92 279.01 1180.93 279.346C1179.77 279.706 1178.56 279.925 1177.34 279.999C1175.66 280.162 1173.97 280.267 1172.29 280.314C1171.01 280.407 1169.72 280.292 1168.48 279.972C1167.85 279.809 1167.27 279.514 1166.77 279.105C1166.27 278.696 1165.85 278.183 1165.55 277.6C1165.3 277.077 1165.24 276.472 1165.41 275.911C1165.48 275.719 1165.59 275.541 1165.72 275.385C1166 275.979 1166.2 276.768 1166.38 277.053C1166.61 277.474 1166.93 277.838 1167.32 278.122C1167.7 278.406 1168.14 278.603 1168.6 278.699C1169.3 278.743 1170 278.652 1170.66 278.431C1174.97 277.337 1179.56 277.321 1183.7 275.664C1185.13 275.09 1186.48 274.327 1187.98 273.98C1189.47 273.633 1191.06 273.728 1192.6 273.596C1195.03 273.396 1197.39 272.644 1199.79 272.249C1200.1 273.062 1200.21 273.94 1200.11 274.806V274.806Z" fill="#464353"/>
<path d="M1262.06 261.617C1261.83 263.469 1260.69 265.063 1259.43 266.415C1258.17 267.767 1256.75 268.982 1255.75 270.54C1254.51 272.47 1253.96 274.864 1252.36 276.495C1251.74 277.088 1251.05 277.592 1250.3 277.994C1249.47 278.501 1248.58 278.919 1247.66 279.241C1245.27 280.025 1242.69 279.846 1240.19 279.657C1239.37 279.649 1238.57 279.49 1237.81 279.188C1237.47 279.009 1237.14 278.802 1236.83 278.568C1236.2 278.172 1235.67 277.632 1235.29 276.989C1235.1 276.64 1235.04 276.23 1235.14 275.843C1235.28 275.415 1235.53 275.032 1235.85 274.727C1236.42 274.128 1237.02 273.57 1237.66 273.06C1238.54 272.478 1239.33 271.769 1240.01 270.955C1240.43 270.312 1240.74 269.6 1240.92 268.851C1241.28 267.538 1241.51 266.189 1241.58 264.826C1241.58 263.921 1241.67 263.018 1241.86 262.133C1242.24 260.744 1243.24 259.502 1243.13 258.066C1243.08 257.86 1243.1 257.645 1243.18 257.45C1243.3 257.298 1243.47 257.192 1243.65 257.151C1244.44 256.83 1245.27 256.633 1246.11 256.567C1246.53 256.537 1246.95 256.603 1247.35 256.762C1247.74 256.92 1248.1 257.166 1248.39 257.482C1248.74 257.913 1248.97 258.534 1249.48 258.703C1249.74 258.774 1250 258.784 1250.26 258.734C1251.53 258.603 1252.86 258.439 1253.86 257.603C1254.32 257.18 1254.69 256.664 1254.94 256.087C1255.2 255.51 1255.34 254.885 1255.35 254.252C1255.35 253.773 1255.14 253.273 1255.86 253.2C1256.4 253.126 1256.84 253.726 1257.11 254.094C1258.11 255.467 1259.14 256.903 1259.52 258.576C1259.66 258.518 1259.82 258.488 1259.97 258.487C1260.29 258.484 1260.61 258.56 1260.9 258.71C1261.18 258.859 1261.43 259.077 1261.61 259.344C1262.02 260.023 1262.18 260.829 1262.06 261.617Z" fill="#514E7F"/>
<path d="M1262.06 261.617C1261.83 263.469 1260.69 265.063 1259.43 266.415C1258.17 267.767 1256.75 268.982 1255.75 270.54C1254.51 272.47 1253.96 274.864 1252.36 276.495C1251.74 277.088 1251.05 277.592 1250.3 277.994C1249.47 278.501 1248.58 278.919 1247.66 279.241C1245.27 280.025 1242.69 279.846 1240.19 279.657C1239.37 279.649 1238.57 279.49 1237.81 279.188C1237.47 279.009 1237.14 278.802 1236.83 278.568C1236.2 278.172 1235.67 277.632 1235.29 276.989C1235.77 276.752 1236.29 276.623 1236.83 276.611C1237.94 276.674 1238.75 277.747 1239.81 278.078C1241.33 278.547 1242.84 277.452 1244.37 277.079C1245.37 276.837 1246.43 276.9 1247.42 276.553C1248.24 276.226 1249.01 275.752 1249.67 275.153C1250.58 274.485 1251.4 273.684 1252.08 272.775C1252.65 271.866 1253.12 270.898 1253.49 269.887C1254.3 267.949 1255.26 266.078 1256.35 264.29C1256.51 264.006 1256.7 263.745 1256.93 263.511C1257.17 263.285 1257.44 263.127 1257.71 262.927C1258.74 262.133 1259.17 260.823 1259.53 259.539C1259.62 259.149 1259.76 258.77 1259.93 258.408C1260.25 258.405 1260.57 258.482 1260.85 258.631C1261.14 258.78 1261.39 258.998 1261.57 259.265C1262.01 259.96 1262.19 260.798 1262.06 261.617V261.617Z" fill="#464353"/>
<path d="M1154.37 97.5924C1155.65 98.5737 1156.7 99.8309 1157.46 101.275C1158.17 102.717 1162.32 113.901 1162.08 115.527C1163.43 114.133 1168.75 113.906 1170.12 112.512C1170.69 111.928 1173.77 109.014 1174.23 108.335C1174.69 107.657 1178.12 106.231 1178.5 105.515C1179.9 102.943 1168.55 93.1943 1170.01 90.6533C1170.09 90.5365 1170.13 90.3963 1170.12 90.2535C1170.09 90.1335 1170.03 90.0258 1169.93 89.9431C1169.01 88.9698 1167.77 88.3648 1166.65 87.644C1165.53 86.9233 1164.46 85.9185 1164.15 84.5927C1163.08 85.0962 1162.1 85.775 1161.25 86.6024C1159.17 88.4297 1157.12 90.2938 1155.11 92.1947C1154.33 92.9418 1152.81 93.9361 1152.44 95.0041C1152.01 96.1509 1153.62 96.9664 1154.37 97.5924Z" fill="#A1616A"/>
<path d="M1172.74 93.4521C1171 94.6503 1169.37 96.0136 1167.88 97.524C1166.47 98.9497 1165.14 100.602 1164.8 102.596C1164.66 103.379 1164.68 104.174 1164.56 104.968C1164.04 108.414 1161.14 110.939 1159.85 114.164C1159.48 115.16 1159.21 116.191 1159.04 117.242C1158.68 119.235 1158.48 121.255 1158.45 123.281C1158.42 125.244 1160.3 126.596 1160.98 128.427C1161.67 130.257 1161.86 132.141 1162.21 134.019C1162.86 137.565 1164.07 140.984 1165.29 144.383C1167.82 151.548 1176.03 171.356 1178.56 178.526C1186.32 176.532 1206.97 171.95 1213.84 167.747C1216.13 166.347 1197.95 150.559 1200.4 149.47C1200.54 149.448 1200.67 149.393 1200.79 149.308C1200.9 149.224 1201 149.114 1201.06 148.986C1201.13 148.858 1201.17 148.716 1201.17 148.571C1201.17 148.425 1201.15 148.281 1201.09 148.15C1198.64 137.175 1190.97 128.158 1187.5 117.473C1186.29 113.764 1184.12 110.597 1182.48 107.073C1180.99 103.879 1180.2 100.349 1178.41 97.3136C1178.08 96.6882 1177.64 96.1274 1177.11 95.6564C1176.67 95.3073 1176.19 95.0091 1175.68 94.7673C1174.66 94.2623 1173.72 93.9624 1172.74 93.4521Z" fill="#514E7F"/>
<path d="M1154.79 96.3456C1161.49 96.3456 1166.93 90.7751 1166.93 83.9036C1166.93 77.032 1161.49 71.4615 1154.79 71.4615C1148.08 71.4615 1142.64 77.032 1142.64 83.9036C1142.64 90.7751 1148.08 96.3456 1154.79 96.3456Z" fill="#A1616A"/>
<path d="M1167.14 89.7484C1167.75 89.1765 1168.51 88.806 1169.32 88.6858C1170.14 88.5656 1170.97 88.7013 1171.71 89.075C1172.53 89.5117 1173.25 90.3955 1173.06 91.3215L1179.09 91.4161C1180.04 91.3893 1181 91.4793 1181.94 91.6845C1182.89 91.895 1183.73 92.4364 1184.32 93.2154C1184.4 93.3153 1184.48 93.4363 1184.6 93.4521C1184.7 93.4537 1184.8 93.4203 1184.88 93.3574C1185.81 92.8813 1186.85 92.6982 1187.88 92.8313C1191.13 93.047 1194.14 94.7147 1196.7 96.7981C1197.16 97.1222 1197.51 97.5777 1197.72 98.108C1197.93 98.8077 1197.68 99.6863 1198.24 100.186C1198.24 105.973 1200.18 111.381 1201.47 117.021C1201.7 118.026 1202.64 118.915 1203.29 119.704C1204.1 120.579 1204.76 121.585 1205.24 122.682C1206.34 125.607 1204.82 129.047 1205.89 131.983C1206.34 133.225 1207.22 134.245 1207.95 135.324C1208.91 136.569 1209.52 138.062 1209.7 139.638C1209.75 140.343 1209.66 141.053 1209.7 141.742C1209.77 142.69 1209.94 143.627 1210.22 144.536C1210.65 146.233 1211.11 147.929 1211.59 149.623C1212.37 152.359 1213.39 155.31 1215.78 156.767C1210.01 157.772 1203.92 158.756 1198.41 156.699C1197.64 156.43 1196.91 156.057 1196.24 155.589C1194.26 154.137 1193.3 151.654 1192.44 149.307C1191.48 146.677 1190.51 143.999 1190.32 141.2C1190.32 140.31 1190.2 139.424 1189.95 138.57C1189.39 137.044 1187.9 136.123 1186.54 135.276C1185.01 134.417 1183.62 133.312 1182.43 132.004C1181.84 131.345 1181.39 130.569 1181.1 129.724C1180.82 128.879 1180.7 127.982 1180.77 127.09C1180.87 126.222 1181.21 125.386 1181.24 124.513C1181.27 123.639 1180.89 122.64 1180.07 122.408C1175.87 121.103 1173.86 116 1172.92 111.602C1172.52 109.329 1172.34 107.02 1172.38 104.71L1172.33 100.223C1171.75 99.682 1171.28 99.0257 1170.96 98.294C1170.63 97.5623 1170.45 96.7705 1170.44 95.9668C1170.49 95.4979 1170.49 95.0233 1170.41 94.5569C1170.21 93.9868 1169.88 93.4733 1169.45 93.0576C1168.52 92.0812 1167.74 90.9653 1167.14 89.7484V89.7484Z" fill="#464353"/>
<path d="M1154.2 103.974C1154.07 105.363 1154.37 106.789 1154.07 108.151C1153.95 108.677 1153.75 109.203 1153.6 109.693C1153.14 111.654 1153.34 113.715 1154.16 115.548C1154.98 117.363 1155.95 119.098 1157.08 120.73C1157.46 121.287 1157.78 121.889 1158.02 122.524C1158.21 123.19 1158.33 123.877 1158.37 124.57C1158.67 127.356 1159.15 130.119 1159.8 132.841C1160.38 135.197 1166.91 155.347 1168.43 157.214C1168.71 157.628 1169.12 157.919 1169.6 158.03C1169.94 158.043 1170.29 157.971 1170.6 157.819L1173.68 156.609C1173.94 156.527 1174.18 156.391 1174.39 156.21C1174.68 155.864 1174.84 155.423 1174.83 154.968C1175.05 152.401 1168.51 132.109 1167.68 129.684C1165.16 122.361 1161.81 115.301 1160.17 107.72C1159.72 105.615 1159.47 102.375 1157.97 100.696C1157.35 100.002 1157.56 100.297 1156.81 100.66C1156.44 100.827 1156.07 101.022 1155.73 101.244C1155.29 101.554 1154.93 101.96 1154.66 102.433C1154.4 102.905 1154.24 103.432 1154.2 103.974Z" fill="#464353"/>
<path d="M1163.56 117.868C1164.38 122.345 1165.24 126.812 1166.08 131.289L1178.14 128.053C1178.24 126.759 1177.57 125.559 1177.11 124.37C1176.01 121.545 1175.99 118.399 1175.1 115.495C1174.43 113.286 1173.26 111.255 1172.63 109.03C1172.26 107.735 1172.08 106.399 1171.72 105.089C1171.33 103.803 1170.86 102.546 1170.3 101.328C1169.62 99.561 1168.74 97.8847 1167.67 96.3351C1166.13 96.9243 1164.49 97.6082 1163.61 99.0339C1163.16 99.8373 1162.9 100.739 1162.86 101.664C1162.65 104.437 1163.63 107.225 1163.3 109.982C1162.97 112.607 1163.06 115.271 1163.56 117.868V117.868Z" fill="#00CB54"/>
<path d="M1178.34 177.421C1179.02 180.052 1178.04 182.819 1177.24 185.423C1176.03 189.346 1175.21 193.382 1174.78 197.471C1174.73 198.511 1174.53 199.538 1174.18 200.517C1173.8 201.395 1173.15 202.137 1172.71 202.974C1171.5 205.173 1171.53 207.856 1171.79 210.371C1171.96 212.028 1172.23 213.68 1172.55 215.311C1172.94 217.304 1173.43 219.388 1172.86 221.334C1173.82 221.119 1174.46 222.386 1174.4 223.381C1174.34 224.375 1174.03 225.485 1174.49 226.343C1175.68 226.785 1175.69 228.447 1175.65 229.736C1175.67 231.971 1175.95 234.196 1176.47 236.365C1178.26 245.168 1180.16 253.947 1182.16 262.701C1186.5 264.079 1191.57 265.515 1195.71 263.606C1196.48 263.253 1197.25 262.69 1197.42 261.838C1197.47 261.379 1197.41 260.915 1197.26 260.481L1195.3 253.168C1194.82 251.4 1194.34 249.575 1194.59 247.76C1194.78 246.408 1195.36 244.95 1194.71 243.756C1194.49 243.346 1194.14 243.025 1193.89 242.636C1192.86 241.094 1193.4 239.032 1193.48 237.164C1193.51 236.745 1193.48 236.323 1193.4 235.912C1193.26 235.432 1193.06 234.971 1192.81 234.539C1191.19 231.315 1190.41 227.715 1190.55 224.091C1190.61 223.629 1190.55 223.158 1190.37 222.728C1190.25 222.551 1190.14 222.365 1190.04 222.171C1189.96 221.833 1190 221.479 1190.15 221.166C1189.56 220.708 1189.03 220.178 1188.57 219.588C1188.85 219.406 1189.09 219.161 1189.27 218.87C1189.45 218.579 1189.56 218.251 1189.6 217.909C1189.63 217.568 1189.59 217.222 1189.48 216.899C1189.37 216.575 1189.19 216.282 1188.95 216.042C1189.16 215.999 1189.35 215.897 1189.51 215.748C1189.66 215.598 1189.77 215.408 1189.83 215.197C1189.89 214.986 1189.89 214.763 1189.83 214.553C1189.77 214.342 1189.65 214.153 1189.5 214.006C1189.24 213.827 1188.91 213.748 1188.73 213.48C1188.45 213.09 1188.68 212.549 1188.9 212.133L1190.1 209.918C1190.99 208.271 1191.2 206.235 1192.16 204.657C1193.53 202.358 1194.43 199.796 1195.32 197.26L1198.78 187.491L1201.1 189.558C1201.88 190.165 1202.53 190.923 1203.01 191.789C1203.34 192.645 1203.55 193.545 1203.63 194.462C1204.49 199.765 1207.74 204.363 1208.95 209.587C1209.22 210.749 1209.4 211.97 1210.05 212.964C1210.28 213.269 1210.49 213.593 1210.67 213.932C1210.84 214.449 1210.93 214.991 1210.94 215.537C1211.04 216.605 1211.37 217.638 1211.91 218.564C1212.44 219.489 1213.16 220.287 1214.02 220.903C1215.16 221.708 1216.58 222.26 1217.21 223.533C1217.33 223.928 1217.5 224.304 1217.72 224.654C1218.27 225.338 1219.47 225.417 1219.71 226.274C1219.84 226.753 1219.59 227.326 1219.86 227.747C1220 227.942 1220.2 228.093 1220.43 228.184L1223.77 229.894C1227.51 231.809 1229.42 236.207 1232.18 239.411C1233.13 240.454 1233.97 241.597 1234.69 242.82C1235.88 245.003 1236.43 247.744 1238.45 249.133C1238.99 249.42 1239.48 249.795 1239.9 250.243C1240.54 251.095 1240.3 252.289 1240.36 253.363C1240.42 254.436 1241.22 255.714 1242.22 255.388C1241.87 256.688 1241.87 258.06 1242.22 259.36C1246.59 259.13 1250.76 257.399 1254.06 254.446C1255.03 253.573 1255.97 252.458 1255.98 251.132C1256 250.903 1255.95 250.675 1255.84 250.474C1255.64 250.215 1255.38 250.014 1255.08 249.89C1251.96 248.154 1251.02 244.13 1249.44 240.863C1248.05 237.98 1246.01 235.497 1244.3 232.819C1240.58 227.058 1238.05 220.087 1232.42 216.284C1231.18 215.447 1229.75 214.706 1229.13 213.322C1228.78 212.549 1228.74 211.665 1228.47 210.865C1228.2 210.065 1227.54 209.287 1226.71 209.287C1227.17 208.129 1227.08 206.719 1227.11 205.467C1227.14 204.912 1227.08 204.355 1226.93 203.821C1226.71 203.246 1226.44 202.699 1226.1 202.19C1224.63 199.645 1223.9 196.727 1223.98 193.772C1224.03 192.252 1224.29 190.684 1223.84 189.232C1223.61 188.501 1223.22 187.833 1222.95 187.128C1222.54 185.85 1222.32 184.516 1222.31 183.172L1222 178.116C1221.95 176.432 1221.74 174.758 1221.36 173.118C1220.33 169.193 1219.31 152.753 1215.79 150.901C1212.27 149.049 1206.23 161.702 1202.27 161.949C1200.52 162.024 1198.78 162.366 1197.13 162.964C1194.5 163.975 1192.29 165.858 1190.14 167.699L1182.86 173.965C1181.31 175.264 1180.04 176.506 1178.34 177.421Z" fill="#464353"/>
<path d="M1143.39 70.0884C1144.99 67.8472 1147.74 66.6583 1150.46 66.5583C1153.17 66.4584 1155.84 67.3317 1158.27 68.568C1158.98 68.9857 1159.75 69.3075 1160.55 69.5255C1161.83 69.7938 1163.26 69.436 1164.42 70.0516C1165.96 70.888 1166.26 73.0187 1166.12 74.7864C1165.99 76.554 1165.67 78.5164 1166.59 80.0473C1166.91 80.4839 1167.21 80.9426 1167.47 81.4204C1167.87 82.3305 1167.64 83.3827 1167.4 84.3455C1166.8 83.8194 1166.46 83.025 1165.93 82.4147C1165.39 81.8044 1164.47 81.3941 1163.8 81.8518C1163.14 82.3095 1163.15 83.1407 1163.11 83.8878C1163.08 84.6348 1162.89 85.5292 1162.21 85.7712C1161.92 85.8382 1161.62 85.8153 1161.34 85.7056C1161.07 85.5959 1160.83 85.4043 1160.67 85.1556C1159.49 83.6826 1159.96 81.331 1158.8 79.8474C1158.13 79.0056 1157.03 78.5953 1156.42 77.7115C1155.94 77.017 1155.81 76.1332 1155.39 75.3861C1154.97 74.6391 1153.99 74.0919 1153.34 74.6075C1153.11 74.8254 1152.93 75.0796 1152.79 75.3598C1152.38 75.9566 1151.79 76.3954 1151.11 76.6055C1150.43 76.8155 1149.7 76.7844 1149.04 76.5172C1148.53 76.1996 1147.99 75.957 1147.42 75.7965C1147.04 75.7773 1146.67 75.8657 1146.34 76.0516C1146.01 76.2375 1145.74 76.5136 1145.56 76.8487C1145.19 77.5181 1145.02 78.2799 1145.05 79.0477C1145.05 80.0999 1145.23 81.2205 1144.65 82.0622C1144.43 82.3791 1144.15 82.6503 1143.83 82.8619C1142.97 83.4248 1141.77 83.8036 1140.98 83.1618C1140.71 82.906 1140.51 82.5839 1140.4 82.2264C1140.29 81.869 1140.27 81.4881 1140.34 81.1205C1140.5 80.3883 1140.7 79.6676 1140.95 78.9635C1141.4 77.3327 1140.81 75.4966 1141.3 73.9604C1141.82 72.577 1142.52 71.2738 1143.39 70.0884V70.0884Z" fill="#464353"/>
<path d="M1149.9 107.204C1149.82 107.588 1149.86 107.986 1150.01 108.346C1150.16 108.591 1150.37 108.795 1150.62 108.94C1152.34 110.042 1154.31 110.694 1156.34 110.839C1156.61 110.844 1156.88 110.916 1157.13 111.05C1157.61 111.376 1157.64 112.102 1157.46 112.681C1157.22 113.227 1157.1 113.818 1157.1 114.417C1157.25 115.516 1158.52 115.995 1159.59 116.158C1161.1 116.353 1162.75 116.253 1163.94 115.29C1164.74 114.536 1165.36 113.592 1165.73 112.539C1168.68 105.6 1169.71 97.9291 1172.69 91.011C1172.92 90.5593 1173.07 90.0721 1173.14 89.5696C1173.17 89.318 1173.14 89.0623 1173.04 88.8292C1172.94 88.5961 1172.78 88.3939 1172.58 88.2438C1172.03 87.8913 1171.17 88.0912 1170.79 87.5388C1170.61 87.26 1170.63 86.8812 1170.46 86.5866C1170.12 85.9606 1169.22 86.0605 1168.6 85.6975C1168.12 85.4345 1167.78 84.8926 1167.24 84.7874C1166.98 84.7721 1166.71 84.8202 1166.47 84.928C1166.23 85.0357 1166.01 85.2001 1165.84 85.4082C1164.09 87.0811 1163.17 89.4538 1162.2 91.695C1160.71 95.1303 1158.96 98.4438 1156.98 101.607C1157.21 101.238 1155.87 98.45 1155.35 98.329C1154.43 98.1396 1153.25 99.7915 1152.75 100.407C1151.19 102.349 1150.2 104.706 1149.9 107.204V107.204Z" fill="#00CB54"/>
<path opacity="0.1" d="M1168.55 86.1868C1168.18 86.1931 1167.82 86.2843 1167.49 86.4537C1167.16 86.6231 1166.87 86.8663 1166.65 87.1653C1166.1 87.8966 1165.99 88.8646 1165.85 89.7957C1165.38 92.7459 1164.36 95.5735 1162.83 98.1185" fill="black"/>
<path opacity="0.1" d="M1171.17 88.2859C1170.66 88.2975 1170.17 88.4448 1169.73 88.7132C1169.29 88.9817 1168.93 89.362 1168.68 89.8168C1168.34 90.6443 1168.13 91.5212 1168.06 92.4157C1167.61 94.3988 1166.77 96.2625 1165.56 97.8818" fill="black"/>
<path d="M1293.22 191.137V184.603C1293.22 179.793 1291.35 175.18 1288.03 171.779C1284.71 168.379 1280.21 166.468 1275.51 166.468H1023.63C1018.93 166.468 1014.43 168.379 1011.11 171.779C1007.79 175.18 1005.92 179.793 1005.92 184.603V196.65L1293.22 191.137Z" fill="#33323D"/>
<path d="M1093.7 158.808C1093.7 158.808 1092.98 204.505 1100.89 219.54C1108.8 234.576 1112.19 299.985 1112.19 299.985C1112.19 299.985 1195.09 308.771 1252.87 289.463C1310.64 270.156 1433.57 262.259 1433.57 262.259L1412.85 119.22C1412.85 119.22 1310.51 112.497 1252.29 140.942C1194.07 169.388 1093.7 158.808 1093.7 158.808Z" fill="#8DD070"/>
<path opacity="0.1" d="M1093.7 158.808C1093.7 158.808 1092.98 204.505 1100.89 219.54C1108.8 234.576 1112.19 299.985 1112.19 299.985C1112.19 299.985 1195.09 308.771 1252.87 289.463C1310.64 270.156 1433.57 262.259 1433.57 262.259L1412.85 119.22C1412.85 119.22 1310.51 112.497 1252.29 140.942C1194.07 169.388 1093.7 158.808 1093.7 158.808Z" fill="black"/>
<path d="M1112.05 175.501C1112.05 175.501 1109.46 213.206 1115.96 225.254C1122.47 237.301 1122.77 291.083 1122.77 291.083C1122.77 291.083 1197.38 294.629 1250.46 276.121C1303.53 257.613 1415.06 245.608 1415.06 245.608L1402.39 128.632C1402.39 128.632 1310.11 127.659 1256.25 153.711C1202.39 179.763 1112.05 175.501 1112.05 175.501Z" fill="#8DD070"/>
<path opacity="0.1" d="M1255.43 254.704C1266.04 253.349 1272.35 233.342 1269.51 210.017C1266.68 186.691 1255.77 168.881 1245.16 170.235C1234.54 171.59 1228.23 191.597 1231.07 214.922C1233.9 238.248 1244.81 256.059 1255.43 254.704Z" fill="black"/>
<path opacity="0.2" d="M1356.74 49.5393C1356.74 49.5393 1257.32 75.3178 1210.43 120.693C1163.55 166.068 1064.84 187.554 1064.84 187.554C1064.84 187.554 1077.85 231.267 1089.87 243.093C1101.9 254.92 1124.71 316.115 1124.71 316.115C1124.71 316.115 1206.25 298.407 1255.44 261.854C1304.64 225.301 1419.3 179.137 1419.3 179.137L1356.74 49.5393Z" fill="black"/>
<path d="M1063.35 181.009C1063.35 181.009 1076.35 224.728 1088.36 236.554C1100.38 248.381 1123.2 309.57 1123.2 309.57C1123.2 309.57 1204.75 291.867 1253.95 255.315C1303.15 218.762 1417.8 172.613 1417.8 172.613L1355.25 43C1355.25 43 1255.82 68.7785 1208.94 114.154C1162.05 159.529 1063.35 181.009 1063.35 181.009Z" fill="#8DD070"/>
<path opacity="0.1" d="M1063.35 181.009C1063.35 181.009 1076.35 224.728 1088.36 236.554C1100.38 248.381 1123.2 309.57 1123.2 309.57C1123.2 309.57 1204.75 291.867 1253.95 255.315C1303.15 218.762 1417.8 172.613 1417.8 172.613L1355.25 43C1355.25 43 1255.82 68.7785 1208.94 114.154C1162.05 159.529 1063.35 181.009 1063.35 181.009Z" fill="black"/>
<path d="M1085.8 191.131C1085.8 191.131 1094.62 227.837 1104.43 237.254C1114.23 246.671 1130.62 297.754 1130.62 297.754C1130.62 297.754 1202.69 277.668 1247.66 243.367C1292.63 209.066 1395.19 162.628 1395.19 162.628L1348.1 55.2421C1348.1 55.2421 1259.98 83.3196 1216.52 125.049C1173.06 166.779 1085.8 191.131 1085.8 191.131Z" fill="#8DD070"/>
<path opacity="0.1" d="M1246 221.439C1255.69 216.812 1255.7 195.788 1246.02 174.479C1236.33 153.17 1220.62 139.647 1210.92 144.274C1201.22 148.9 1201.21 169.925 1210.9 191.233C1220.58 212.542 1236.3 226.065 1246 221.439Z" fill="black"/>
<path opacity="0.1" d="M1300.02 197.55V379.051C1300.02 381.112 1299.62 383.153 1298.85 385.058C1298.08 386.962 1296.95 388.692 1295.53 390.15C1294.11 391.607 1292.42 392.763 1290.56 393.551C1288.7 394.34 1286.71 394.745 1284.7 394.744H1021.25C1017.19 394.743 1013.29 393.089 1010.42 390.146C1007.55 387.203 1005.94 383.212 1005.94 379.051V179.252C1013.49 182.125 1013.49 182.125 1021.25 181.883H1284.7C1288.75 181.883 1292.65 183.532 1295.52 186.47C1298.39 189.407 1300.01 193.392 1300.02 197.55V197.55Z" fill="black"/>
<path d="M1300.02 199.859V381.361C1300.02 385.523 1298.4 389.515 1295.53 392.458C1292.66 395.401 1288.76 397.054 1284.7 397.054H1021.25C1017.19 397.052 1013.29 395.398 1010.42 392.456C1007.55 389.513 1005.94 385.522 1005.94 381.361V181.557C1013.49 184.424 1013.49 184.424 1021.25 184.187H1284.7C1288.75 184.187 1292.65 185.837 1295.52 188.776C1298.39 191.714 1300.01 195.7 1300.02 199.859V199.859Z" fill="#504F60"/>
<path opacity="0.1" d="M1299.27 266.962V325.006H1244.32C1236.87 324.903 1229.77 321.8 1224.53 316.369C1219.3 310.937 1216.37 303.614 1216.37 295.984C1216.37 288.354 1219.3 281.031 1224.53 275.599C1229.77 270.168 1236.87 267.065 1244.32 266.962H1299.27Z" fill="black"/>
<path d="M1300.02 265.415V323.47H1245.07C1237.62 323.367 1230.51 320.264 1225.28 314.832C1220.05 309.401 1217.12 302.078 1217.12 294.448C1217.12 286.818 1220.05 279.494 1225.28 274.063C1230.51 268.632 1237.62 265.529 1245.07 265.426L1300.02 265.415Z" fill="#33323D"/>
<path opacity="0.1" d="M1247.7 307.303C1253.81 307.303 1258.75 302.236 1258.75 295.987C1258.75 289.737 1253.81 284.67 1247.7 284.67C1241.6 284.67 1236.66 289.737 1236.66 295.987C1236.66 302.236 1241.6 307.303 1247.7 307.303Z" fill="black"/>
<path d="M1248.45 305.767C1254.56 305.767 1259.5 300.7 1259.5 294.45C1259.5 288.201 1254.56 283.134 1248.45 283.134C1242.35 283.134 1237.41 288.201 1237.41 294.45C1237.41 300.7 1242.35 305.767 1248.45 305.767Z" fill="#00CB54"/>
<path d="M1395.4 264.916C1395.84 269.761 1392.26 274.464 1393.3 279.21C1393.52 280.225 1393.95 281.182 1394.1 282.208C1394.54 285.028 1392.9 287.695 1391.33 290.052L1377.88 310.275C1377.34 311.164 1376.69 311.981 1375.96 312.706C1373.39 315.052 1369.53 314.81 1366.15 315.51C1363.77 316.004 1361.53 317.02 1359.57 318.488C1359.49 318.559 1359.44 318.66 1359.43 318.77C1359.42 318.879 1359.45 318.989 1359.51 319.077C1360.07 319.856 1360.81 320.479 1361.66 320.89C1362.52 321.301 1363.46 321.486 1364.4 321.428C1364.76 321.907 1364.4 322.607 1363.89 322.949C1363.16 323.475 1362.17 323.601 1362.03 324.853C1361.98 325.29 1362.06 325.733 1362.28 326.116C1362.82 326.966 1363.66 327.568 1364.63 327.794C1369.29 329.251 1374.32 326.689 1377.8 323.201C1381.29 319.713 1383.79 315.31 1387.21 311.759C1389.11 309.797 1391.26 308.113 1393.21 306.209C1397.1 302.41 1400.13 297.791 1403.05 293.167C1403.93 291.773 1404.81 290.342 1405.18 288.727C1405.55 287.111 1405.38 285.481 1405.79 283.918C1406.34 281.866 1407.8 280.235 1409.02 278.515C1411.41 275.148 1413 271.029 1412.68 266.883C1412.37 262.738 1409.86 258.639 1406.04 257.229C1404.86 256.742 1403.55 256.661 1402.32 256.998C1400.75 257.493 1399.59 258.818 1398.53 260.086L1395.96 263.111C1395.32 263.775 1394.81 264.562 1394.47 265.426C1394.3 265.86 1394.27 266.333 1394.36 266.79C1394.45 267.246 1394.67 267.665 1394.98 267.999" fill="#FBBEBE"/>
<path opacity="0.05" d="M1395.4 264.916C1395.84 269.761 1392.26 274.464 1393.3 279.21C1393.52 280.225 1393.95 281.182 1394.1 282.208C1394.54 285.028 1392.9 287.695 1391.33 290.052L1377.88 310.275C1377.34 311.164 1376.69 311.981 1375.96 312.706C1373.39 315.052 1369.53 314.81 1366.15 315.51C1363.77 316.004 1361.53 317.02 1359.57 318.488C1359.49 318.559 1359.44 318.66 1359.43 318.77C1359.42 318.879 1359.45 318.989 1359.51 319.077C1360.07 319.856 1360.81 320.479 1361.66 320.89C1362.52 321.301 1363.46 321.486 1364.4 321.428C1364.76 321.907 1364.4 322.607 1363.89 322.949C1363.16 323.475 1362.17 323.601 1362.03 324.853C1361.98 325.29 1362.06 325.733 1362.28 326.116C1362.82 326.966 1363.66 327.568 1364.63 327.794C1369.29 329.251 1374.32 326.689 1377.8 323.201C1381.29 319.713 1383.79 315.31 1387.21 311.759C1389.11 309.797 1391.26 308.113 1393.21 306.209C1397.1 302.41 1400.13 297.791 1403.05 293.167C1403.93 291.773 1404.81 290.342 1405.18 288.727C1405.55 287.111 1405.38 285.481 1405.79 283.918C1406.34 281.866 1407.8 280.235 1409.02 278.515C1411.41 275.148 1413 271.029 1412.68 266.883C1412.37 262.738 1409.86 258.639 1406.04 257.229C1404.86 256.742 1403.55 256.661 1402.32 256.998C1400.75 257.493 1399.59 258.818 1398.53 260.086L1395.96 263.111C1395.32 263.775 1394.81 264.562 1394.47 265.426C1394.3 265.86 1394.27 266.333 1394.36 266.79C1394.45 267.246 1394.67 267.665 1394.98 267.999" fill="black"/>
<path d="M1405.58 389.652C1402.64 391.488 1398.98 391.598 1395.57 391.172C1395.02 391.104 1394.37 391.062 1394.03 391.498C1393.51 392.13 1394.12 393.077 1394.75 393.566C1396.76 395.115 1399.13 396.113 1401.62 396.465C1403.85 396.788 1406.1 396.941 1408.35 396.922C1414.51 397.033 1420.68 397.138 1426.74 396.233C1427.1 396.205 1427.45 396.102 1427.77 395.928C1428.16 395.647 1428.43 395.224 1428.53 394.744C1428.94 393.124 1428.14 391.388 1426.93 390.262C1425.72 389.136 1424.16 388.51 1422.64 387.905L1417.3 385.775C1416.05 385.275 1414.04 383.949 1412.68 384.054C1410.12 384.244 1407.7 388.379 1405.58 389.652Z" fill="#3F3D56"/>
<path opacity="0.05" d="M1405.58 389.652C1402.64 391.488 1398.98 391.598 1395.57 391.172C1395.02 391.104 1394.37 391.062 1394.03 391.498C1393.51 392.13 1394.12 393.077 1394.75 393.566C1396.76 395.115 1399.13 396.113 1401.62 396.465C1403.85 396.788 1406.1 396.941 1408.35 396.922C1414.51 397.033 1420.68 397.138 1426.74 396.233C1427.1 396.205 1427.45 396.102 1427.77 395.928C1428.16 395.647 1428.43 395.224 1428.53 394.744C1428.94 393.124 1428.14 391.388 1426.93 390.262C1425.72 389.136 1424.16 388.51 1422.64 387.905L1417.3 385.775C1416.05 385.275 1414.04 383.949 1412.68 384.054C1410.12 384.244 1407.7 388.379 1405.58 389.652Z" fill="black"/>
<path d="M1409.33 317.02C1407.1 320.05 1404.8 323.548 1405.35 327.299C1405.65 329.32 1406.75 331.103 1407.56 332.971C1408.66 335.506 1409.24 338.232 1409.8 340.946C1410.64 344.913 1411.47 348.89 1411.98 352.92C1412.56 357.471 1409.83 370.639 1409.58 375.221C1409.52 376.326 1409.39 377.52 1408.64 378.314C1408.35 378.63 1407.96 378.883 1407.83 379.293C1407.75 379.688 1407.81 380.099 1408.01 380.45C1409.26 383.344 1411.82 385.501 1414.68 386.732C1417.54 387.963 1424.44 390.088 1427.56 390.199C1427.97 390.245 1428.38 390.189 1428.77 390.036C1429.18 389.777 1429.51 389.393 1429.7 388.936C1431.94 384.559 1429.79 368.997 1429.82 364.057C1429.85 359.938 1430.8 355.845 1430.63 351.731C1430.48 348.427 1429.6 345.197 1429.31 341.904C1428.79 336.506 1429.76 331.082 1430.73 325.747C1431.47 321.655 1432.21 317.562 1433.16 313.521C1433.74 311.054 1434.42 308.565 1435.73 306.424C1436.76 304.725 1438.2 303.304 1439.4 301.689C1442.72 297.229 1444.2 291.609 1443.51 286.043C1443.44 285.517 1435.8 288.027 1435.13 288.327C1432.39 289.517 1429.86 291.181 1427.66 293.246C1425.9 294.971 1424.51 297.275 1422.96 299.206C1420.77 301.938 1418.61 304.69 1416.48 307.461C1414.05 310.628 1411.66 313.814 1409.33 317.02Z" fill="#464353"/>
<path opacity="0.05" d="M1409.33 316.836C1407.1 319.866 1404.8 323.37 1405.35 327.115C1405.65 329.141 1406.75 330.924 1407.56 332.792C1408.66 335.322 1409.24 338.053 1409.8 340.762C1410.64 344.734 1411.47 348.711 1411.98 352.736C1412.56 357.292 1409.83 370.455 1409.58 375.037C1409.52 376.142 1409.39 377.341 1408.64 378.136C1408.35 378.446 1407.96 378.699 1407.83 379.109C1407.75 379.504 1407.81 379.915 1408.01 380.266C1409.26 383.165 1411.82 385.317 1414.68 386.579C1417.54 387.842 1424.44 388.942 1427.56 389.047C1427.97 389.093 1428.38 389.037 1428.77 388.884C1429.18 388.628 1429.51 388.245 1429.7 387.789C1431.94 383.412 1429.79 368.85 1429.82 363.905C1429.85 359.78 1430.8 355.693 1430.63 351.573C1430.48 348.269 1429.6 345.039 1429.31 341.751C1428.79 336.348 1429.76 330.924 1430.73 325.59C1431.47 321.502 1432.21 317.409 1433.16 313.363C1433.74 310.896 1434.42 308.408 1435.73 306.266C1436.76 304.567 1438.2 303.147 1439.4 301.532C1442.72 297.071 1444.2 291.451 1443.51 285.886C1443.44 285.36 1435.8 287.869 1435.13 288.169C1432.39 289.363 1429.86 291.029 1427.66 293.093C1425.9 294.813 1424.51 297.118 1422.96 299.048C1420.77 301.781 1418.61 304.534 1416.48 307.308C1414.05 310.451 1411.66 313.626 1409.33 316.836Z" fill="black"/>
<path d="M1384.58 250.28C1391.47 250.28 1397.05 244.563 1397.05 237.512C1397.05 230.46 1391.47 224.743 1384.58 224.743C1377.7 224.743 1372.12 230.46 1372.12 237.512C1372.12 244.563 1377.7 250.28 1384.58 250.28Z" fill="#FBBEBE"/>
<path d="M1395.81 236.975C1396.96 238.857 1398.47 240.481 1400.25 241.752C1402.03 243.023 1404.04 243.914 1406.16 244.372L1405.22 247.87C1403.59 253.878 1401.77 260.233 1397.24 264.4C1397.76 262.364 1397.1 260.191 1395.98 258.424C1394.86 256.656 1393.29 255.267 1391.75 253.894L1384.57 247.528C1384.37 247.356 1384.19 247.145 1384.06 246.908C1383.88 246.459 1383.88 245.957 1384.06 245.508C1384.97 242.594 1387.58 240.773 1389.71 238.806C1390.78 237.788 1391.73 236.652 1392.55 235.418C1393.98 233.324 1394.87 235.428 1395.81 236.975Z" fill="#FBBEBE"/>
<path d="M1368.17 224.675L1367.88 222.276C1369.85 222.802 1371.72 221.087 1372.98 219.314C1374.24 217.541 1375.4 215.453 1377.32 214.711C1379.64 213.816 1382.11 215.237 1384.33 216.436C1386.82 217.852 1389.55 218.762 1392.38 219.119C1392.83 219.135 1393.28 219.209 1393.71 219.34C1395.16 219.866 1395.85 221.729 1396.06 223.418C1396.27 225.106 1396.21 226.9 1396.92 228.405C1397.44 229.547 1398.39 230.394 1398.98 231.519C1400.52 234.539 1399.03 238.669 1400.64 241.631L1396.64 237.88C1396.28 237.538 1395.76 237.18 1395.36 237.469C1395.04 237.701 1395.01 238.201 1394.89 238.601C1394.5 239.768 1393.07 240.116 1392.04 239.653C1391.01 239.19 1390.25 238.185 1389.47 237.27C1387.71 235.134 1385.6 233.255 1383.14 232.345C1382.05 231.932 1380.9 231.758 1379.75 231.836C1378.6 231.914 1377.48 232.242 1376.46 232.798C1374.6 233.876 1373.23 236.391 1370.94 236.48C1367.81 236.601 1366.51 230.625 1365.06 228.263C1365.59 227.854 1365.96 227.268 1366.11 226.606C1366.26 225.944 1366.18 225.25 1365.88 224.643C1366.09 224.554 1368.12 224.307 1368.17 224.675Z" fill="#464353"/>
<path d="M1214.01 150.028C1213.01 150.94 1212.08 151.936 1211.24 153.006C1210.39 154.09 1209.94 155.442 1209.96 156.83C1209.97 157.233 1210.09 157.624 1210.32 157.951C1210.44 158.107 1210.6 158.222 1210.79 158.28C1210.97 158.337 1211.17 158.335 1211.35 158.272C1211.56 158.164 1211.73 158.005 1211.87 157.809C1212.41 157.141 1212.98 156.502 1213.59 155.894C1213.81 155.668 1214.1 155.431 1214.4 155.515C1214.54 155.564 1214.66 155.645 1214.75 155.752C1215.1 156.058 1215.35 156.46 1215.48 156.909C1215.66 157.714 1215.2 158.519 1214.68 159.15C1214.16 159.782 1213.55 160.387 1213.34 161.181C1213.26 161.391 1213.26 161.624 1213.34 161.833C1213.44 161.985 1213.58 162.105 1213.74 162.181C1214.47 162.595 1215.29 162.84 1216.13 162.896C1216.97 162.952 1217.81 162.82 1218.59 162.507C1219.61 162.081 1220.53 161.349 1221.59 160.971C1222.04 160.842 1222.49 160.666 1222.91 160.445C1223.21 160.238 1223.47 159.973 1223.68 159.663C1223.88 159.353 1224.02 159.005 1224.09 158.64C1224.22 157.91 1224.25 157.163 1224.16 156.425C1224.04 153.567 1223.44 150.752 1222.4 148.097C1222.34 147.926 1222.23 147.774 1222.1 147.655C1221.95 147.559 1221.77 147.51 1221.59 147.513C1220.27 147.371 1218.11 146.682 1216.85 147.182C1216.4 147.431 1216.02 147.78 1215.73 148.202C1215.49 148.471 1214.01 149.675 1214.01 150.028Z" fill="#A1616A"/>
<path d="M1213.59 148.839C1213.59 147.555 1212.05 144.457 1214.5 144.251C1214.5 142.878 1212.6 142.026 1212.96 140.569C1213.07 140.085 1213.47 139.69 1213.52 139.196C1213.67 137.791 1211.2 137.028 1211.61 135.681C1211.76 135.155 1212.31 134.85 1212.42 134.329C1212.7 133.114 1210.58 132.572 1210.54 131.325C1210.54 130.904 1210.77 130.51 1210.75 130.089C1210.75 129.563 1210.3 129.163 1210.06 128.705C1209.42 127.532 1209.73 125.717 1208.56 125.112C1209.33 125.181 1209.58 124.002 1209.27 123.281C1208.95 122.561 1208.3 121.935 1208.29 121.135C1208.33 120.845 1208.33 120.551 1208.29 120.262C1208.08 119.494 1206.85 119.43 1206.64 118.683C1206.62 118.397 1206.61 118.108 1206.62 117.821C1206.53 117.226 1205.94 116.847 1205.38 116.679C1204.8 116.578 1204.24 116.373 1203.73 116.074C1203.37 115.795 1202.95 115.332 1202.56 115.548C1202.42 115.637 1202.35 115.806 1202.24 115.932C1201.78 116.484 1200.9 116.242 1200.32 115.837C1198.6 114.643 1197.75 112.502 1197.38 110.413C1197.02 108.325 1197.03 106.168 1196.57 104.1C1196.43 103.456 1196.25 102.823 1196.02 102.206C1195.82 101.68 1195.2 100.854 1195.15 100.323C1195.06 99.1128 1197.51 99.9388 1198.44 100.06C1199.34 100.15 1200.23 100.326 1201.1 100.586C1202.03 100.946 1202.94 101.355 1203.83 101.812C1207.54 103.49 1212.01 103.695 1214.99 106.515C1215.97 107.441 1216.8 108.656 1218.07 109.077C1218.66 109.192 1219.23 109.345 1219.8 109.535C1221.21 110.213 1221.43 112.134 1222.2 113.522C1222.44 113.889 1222.66 114.276 1222.83 114.68C1222.98 115.156 1223.05 115.654 1223.04 116.153L1223.15 119.799C1223.32 125.907 1223.5 132.03 1222.86 138.101C1222.65 140.106 1222.35 142.168 1222.93 144.094C1223.08 144.62 1223.3 145.114 1223.44 145.646C1223.57 146.269 1223.63 146.903 1223.64 147.539L1223.72 149.902C1223.75 150.085 1223.71 150.273 1223.6 150.428C1223.52 150.499 1223.42 150.55 1223.31 150.576C1223.2 150.603 1223.09 150.604 1222.98 150.58C1219.77 150.286 1216.53 148.434 1213.5 149.554" fill="#464353"/>
<path d="M1360.06 330.34C1381.04 330.34 1398.04 327.822 1398.04 324.716C1398.04 321.61 1381.04 319.092 1360.06 319.092C1339.09 319.092 1322.08 321.61 1322.08 324.716C1322.08 327.822 1339.09 330.34 1360.06 330.34Z" fill="#504F60"/>
<path d="M1392.74 324.99C1392.07 322.06 1391.65 319.487 1391.65 319.487C1391.65 319.487 1391.81 316.299 1390.41 313.905V313.106V307.213C1390.81 306.143 1391.3 305.11 1391.87 304.125C1392.89 302.273 1391.87 295.487 1391.87 295.487C1391.87 295.487 1388.03 285.917 1388.96 279.846C1389.89 273.775 1381.08 252.889 1381.08 252.889C1381.14 250.875 1381.41 248.873 1381.91 246.923C1382 246.513 1382.04 246.092 1382.02 245.671C1382.02 245.619 1382.02 245.571 1382.02 245.519C1382.02 245.466 1382.02 245.55 1382.02 245.566C1381.89 241.562 1378.8 234.06 1378.8 234.06L1379.21 219.761C1379.21 219.761 1381.18 211.344 1377.97 200.007C1376.84 196.056 1376.13 192.894 1375.67 190.453C1375.62 190.179 1375.57 189.927 1375.52 189.658C1382.14 188.606 1387.2 187.764 1387.2 187.764C1387.2 187.764 1383.36 171.303 1380.77 168.42C1378.17 165.537 1376.1 156.483 1376.1 156.483C1376.1 156.483 1374.75 144.862 1376.93 141.463C1379.11 138.065 1379.42 132.204 1379.42 132.204C1379.42 132.204 1384.4 128.521 1385.03 126.854C1385.65 125.186 1386.68 121.503 1386.68 119.551C1386.68 117.6 1386.06 115.869 1386.27 114.817C1386.47 113.764 1384.81 109.877 1385.65 108.025C1385.86 107.456 1385.97 106.851 1385.98 106.241C1385.98 106.224 1385.98 106.206 1385.98 106.189C1385.98 106.189 1385.98 106.189 1385.98 106.189C1385.98 104.568 1385.84 102.951 1385.54 101.359C1384.1 100.114 1382.42 99.1943 1380.61 98.6604L1380.5 98.2185L1380.22 97.0611C1380.06 96.9543 1379.9 96.856 1379.73 96.7665V96.3456L1379.68 94.6726L1380.46 90.9163C1382.01 84.3823 1373.49 83.409 1373.49 83.409C1372.97 82.4068 1372.11 81.635 1371.07 81.2415C1369.36 80.626 1370.79 91.0689 1371.59 91.7633C1372.19 92.2894 1374.05 95.5407 1374.94 97.1505L1375.09 97.4136C1374.95 97.5431 1374.82 97.6838 1374.7 97.8344L1375.02 100.102L1375.07 100.449C1374.51 101.167 1374.05 101.967 1373.71 102.822C1373.71 102.822 1375.25 104.568 1374.96 106.504C1374.67 108.44 1375.44 110.897 1375.47 111.029C1375.38 110.918 1374.29 109.708 1373.19 110.003C1372.1 110.298 1369.04 111.239 1369.04 111.239C1369.04 111.239 1366.76 111.65 1366.99 112.165C1367.22 112.681 1365.45 114.943 1365.45 114.943L1359.32 108.988C1359.26 108.809 1359.19 108.63 1359.14 108.461C1358.89 107.603 1358.72 106.722 1358.62 105.831C1359.29 105.668 1359.95 105.456 1360.59 105.194C1361.23 104.968 1361.81 104.585 1362.28 104.079C1362.9 103.327 1363.02 102.306 1363.27 101.37C1363.75 99.539 1364.81 97.9133 1365.55 96.172C1366.79 93.2295 1367.19 89.9852 1366.7 86.8181C1366.61 85.8421 1366.29 84.9037 1365.76 84.0824C1364.76 82.6725 1362.94 82.0991 1361.62 80.9732C1360.3 79.8474 1359.45 78.1271 1357.91 77.2906C1356.52 76.5278 1354.83 76.6172 1353.26 76.8802C1350.19 77.3987 1347.24 78.4976 1344.56 80.1209C1343.67 80.647 1342.68 81.2941 1341.66 81.0995C1340.77 80.9364 1340.12 80.2156 1339.56 79.5212C1339.57 79.4925 1339.58 79.4643 1339.59 79.437C1339.56 79.4114 1339.54 79.3832 1339.52 79.3529C1338.87 80.8303 1338.54 82.4357 1338.57 84.0561C1338.57 84.3086 1338.57 84.5822 1338.6 84.8084V85.0715C1338.6 85.1451 1338.6 85.2188 1338.6 85.2872C1338.6 85.3993 1338.58 85.5109 1338.55 85.6186C1338.42 85.9404 1338.22 86.2295 1337.97 86.4656C1337.79 86.685 1337.61 86.9189 1337.46 87.1653C1337.46 87.0811 1337.51 86.997 1337.54 86.9075C1337.15 87.4933 1336.93 88.1813 1336.91 88.8909C1336.88 89.4075 1337.04 89.9157 1337.37 90.3113C1337.68 90.6172 1338.01 90.892 1338.37 91.132C1338.25 91.8265 1338.19 92.5307 1338.19 93.2364C1338.2 95.3284 1338.74 97.3819 1339.75 99.1985C1340.76 101.015 1342.21 102.533 1343.97 103.606C1344.04 103.779 1344.11 103.958 1344.17 104.132C1344.96 106.236 1345.55 108.709 1345.29 110.971C1345.29 111.134 1345.24 111.302 1345.22 111.465C1345.19 111.629 1345.06 111.639 1344.99 111.728C1344.99 111.728 1334.86 111.834 1332.48 109.624C1330.1 107.415 1326.46 115.027 1326.46 115.027C1326.46 115.027 1322.83 115.748 1322.1 115.027C1321.37 114.306 1317.13 114.927 1317.13 114.927C1315.39 113.342 1313.12 112.495 1310.79 112.56C1309.38 111.462 1307.83 110.576 1306.17 109.929V109.929L1306.06 109.887C1305.33 109.614 1304.55 109.514 1303.77 109.593C1303.77 109.593 1298.79 105.384 1297.34 103.111C1295.89 100.838 1288.97 92.4473 1288.94 92.4104V92.0053L1288.86 90.7848C1288.65 90.8178 1288.45 90.8354 1288.24 90.8374C1288.2 90.7164 1288.15 90.5744 1288.1 90.4113C1287.7 89.2208 1287.21 88.0649 1286.63 86.9549C1286.63 86.9549 1286.63 85.4134 1287.07 85.0241C1287.5 84.6348 1286.89 78.9793 1286.89 78.9793C1286.89 78.9793 1282.4 68.2313 1278.38 76.2542C1278.38 76.2542 1270.78 81.4467 1277.16 87.4967C1277.16 87.4967 1279.72 88.7594 1280.06 89.7589C1280.3 90.406 1281.16 92.221 1281.74 93.4416L1282 93.9677L1281.93 94.0308L1282.02 95.0409L1282.07 95.4302C1280.86 96.1299 1280.05 96.8243 1280.25 97.3452C1280.6 98.2364 1280.84 99.1696 1280.97 100.123C1280.97 100.123 1289.79 111.444 1290.93 116.279C1290.93 116.279 1314.59 130.684 1322.37 131.709L1321 138.891C1320.8 140.839 1320.69 142.797 1320.69 144.756C1320.79 146.298 1319.75 153.295 1319.75 153.295C1319.75 153.295 1318.4 163.585 1317.26 165.027C1316.12 166.468 1316.33 172.639 1316.33 172.639C1316.06 175.594 1315.54 178.519 1314.79 181.383C1313.65 185.292 1314.48 190.132 1314.48 190.132C1314.48 190.132 1310.54 199.391 1319.98 193.115C1319.98 193.115 1324.6 192.82 1329.95 192.631C1329.95 192.81 1329.95 192.994 1329.95 193.157C1329.95 193.862 1329.95 194.625 1329.91 195.424C1329.84 200.727 1329.81 208.05 1330.05 213.564C1330.46 223.339 1333.37 242.683 1333.37 242.683V252.421C1333.18 253.334 1333.09 254.265 1333.09 255.199C1333.03 258.625 1333.92 261.999 1335.66 264.926L1336.39 271.408C1336.39 271.408 1338.09 275.679 1338.12 278.247C1338.12 278.454 1338.09 278.66 1338.05 278.862C1337.99 279.189 1337.96 279.523 1337.97 279.857C1337.87 282.803 1339.6 289.852 1339.6 289.852C1339.6 289.852 1339.71 296.949 1340.74 297.365C1341.63 297.717 1339.56 301.453 1338.94 302.526C1338.92 302.46 1338.91 302.393 1338.9 302.326L1338.78 302.536C1338.56 303.111 1338.45 303.721 1338.45 304.336C1338.39 304.82 1338.47 305.312 1338.67 305.753C1338.88 306.195 1339.2 306.568 1339.6 306.829C1341.57 308.066 1342.63 309.091 1340.96 309.502C1340.34 309.6 1339.73 309.731 1339.13 309.896C1339.13 309.817 1339.07 309.733 1339.04 309.66C1338.81 309.754 1338.61 309.929 1338.49 310.156C1338.36 310.382 1338.32 310.645 1338.36 310.901C1338.38 311.736 1338.59 312.554 1338.97 313.29C1340.63 317.099 1341.78 318.551 1341.78 318.551L1342.58 318.461C1342.46 318.773 1342.3 319.068 1342.11 319.34C1341.81 319.781 1341.41 320.142 1340.94 320.392C1340.51 320.659 1340.02 320.829 1339.52 320.892C1338.96 320.91 1338.41 321.05 1337.9 321.302C1337.39 321.554 1336.94 321.913 1336.58 322.354C1335.56 323.727 1334.9 325.595 1336.94 327.236L1344.36 329.867C1344.36 329.867 1357.13 331.566 1356.45 328.63C1355.77 325.695 1355.36 323.128 1355.36 323.128C1355.42 321.335 1355.07 319.554 1354.34 317.925C1354.2 317.659 1354.05 317.402 1353.88 317.156L1354.34 317.109C1354.34 317.109 1355.27 310.622 1356.51 309.391C1356.8 309.107 1356.87 308.865 1356.8 308.718C1356.93 308.365 1356.6 308.16 1356.18 308.039L1356.09 308.297C1355.69 308.206 1355.27 308.159 1354.85 308.155C1354.85 308.155 1354.44 304.762 1355.79 303.525C1355.9 303.385 1355.98 303.222 1356.02 303.048C1356.07 302.875 1356.08 302.693 1356.05 302.515C1356.06 302.05 1356.01 301.585 1355.91 301.132C1355.89 301.161 1355.88 301.189 1355.86 301.216C1355.18 298.133 1352.88 293.235 1352.88 293.235C1352.88 293.235 1352.78 290.152 1353.61 288.916C1354.44 287.68 1353.5 272.144 1353.5 272.144C1353.5 272.144 1353.82 264.637 1352.88 261.138C1351.95 257.64 1354.02 253.521 1354.02 253.521C1354.02 253.521 1354.02 253.442 1354.02 253.3V253.247L1353.9 252.063C1353.9 252.088 1353.9 252.112 1353.9 252.137C1353.69 250.148 1353.3 246.545 1353.01 244.882C1352.59 242.515 1353.11 231.204 1353.11 231.204L1354.98 226.364L1358.3 234.702L1361.83 245.813C1361.83 245.813 1363.57 248.16 1363.62 250.548C1363.62 250.664 1363.62 250.78 1363.62 250.895C1363.59 251.141 1363.57 251.389 1363.57 251.637C1363.51 253.041 1363.89 254.429 1364.65 255.599C1364.65 255.599 1365.58 260.859 1367.04 262.18C1368.49 263.5 1368.49 266.089 1368.49 266.089C1368.49 266.089 1370.25 273.707 1371.06 275.032C1371.76 276.158 1371.79 279.241 1371.79 280.204C1371.79 280.377 1371.79 280.477 1371.79 280.477C1371.79 280.477 1372.03 283.203 1372.02 285.486C1372.02 285.77 1372.02 286.043 1372.02 286.301C1372.02 286.282 1372.02 286.263 1372.02 286.243C1372.02 286.867 1371.95 287.489 1371.81 288.095L1371.78 288.2C1371.78 288.069 1371.78 287.943 1371.81 287.816C1371.45 289.367 1371.28 290.957 1371.3 292.551C1371.25 295.287 1371.66 298.528 1373.28 300.443C1376.08 303.736 1377.84 303.326 1377.84 303.326C1377.84 303.326 1376.5 307.44 1374.83 308.266C1374.77 308.296 1374.71 308.335 1374.66 308.381C1374.66 308.297 1374.63 308.218 1374.62 308.139C1374.43 308.344 1374.29 308.587 1374.2 308.852C1374.11 309.116 1374.08 309.397 1374.1 309.675C1373.98 311.485 1375.1 314.41 1376.16 315.773C1376.55 316.167 1377.03 316.456 1377.56 316.615C1377.47 316.675 1377.39 316.73 1377.3 316.778C1377.11 316.882 1376.92 316.975 1376.73 317.056C1376.46 317.174 1376.17 317.25 1375.88 317.283C1375.32 317.298 1374.76 317.437 1374.26 317.689C1373.75 317.941 1373.3 318.301 1372.94 318.745C1371.91 320.113 1371.26 321.981 1373.3 323.622L1380.72 326.253C1380.72 326.253 1393.41 327.92 1392.74 324.99Z" fill="url(#paint0_linear)"/>
<path d="M1344 329.851L1336.81 327.221C1334.83 325.579 1335.46 323.712 1336.46 322.338C1336.8 321.901 1337.24 321.543 1337.73 321.291C1338.22 321.039 1338.76 320.897 1339.3 320.876C1339.79 320.812 1340.26 320.642 1340.68 320.376C1341.13 320.122 1341.52 319.762 1341.82 319.324C1342.34 318.471 1342.62 317.486 1342.63 316.478C1342.63 316.478 1350.52 314.11 1352.68 316.478C1353.06 316.906 1353.38 317.39 1353.63 317.914C1354.35 319.548 1354.7 321.326 1354.66 323.117C1354.66 323.117 1355.06 325.684 1355.71 328.62C1356.36 331.556 1344 329.851 1344 329.851Z" fill="#2D293D"/>
<path d="M1379.15 326.221L1371.96 323.591C1369.97 321.949 1370.61 320.081 1371.61 318.714C1371.95 318.274 1372.38 317.916 1372.87 317.663C1373.36 317.411 1373.9 317.27 1374.45 317.251C1374.73 317.221 1375.01 317.145 1375.27 317.025C1375.46 316.943 1375.64 316.85 1375.82 316.746C1377.83 315.615 1377.78 312.837 1377.78 312.837C1377.78 312.837 1385.66 310.47 1387.82 312.837C1388.11 313.158 1388.37 313.511 1388.58 313.889C1389.93 316.283 1389.78 319.476 1389.78 319.476C1389.78 319.476 1390.18 322.049 1390.81 324.979C1391.43 327.91 1379.15 326.221 1379.15 326.221Z" fill="#2D293D"/>
<path opacity="0.1" d="M1352.68 316.473C1353.07 316.901 1353.39 317.385 1353.64 317.909L1341.83 319.313C1342.35 318.461 1342.63 317.475 1342.64 316.467C1342.64 316.467 1350.53 314.105 1352.68 316.473Z" fill="black"/>
<path opacity="0.1" d="M1388.59 313.9V316.167C1386.75 319.266 1377.86 318.587 1375.28 317.035C1375.47 316.953 1375.65 316.86 1375.83 316.757C1377.84 315.626 1377.79 312.848 1377.79 312.848C1377.79 312.848 1385.67 310.48 1387.83 312.848C1388.12 313.168 1388.38 313.521 1388.59 313.9V313.9Z" fill="black"/>
<path d="M1389.99 304.125C1389.44 305.113 1388.97 306.146 1388.59 307.213V315.341C1386.58 318.735 1376.14 317.604 1374.72 315.752C1373.31 313.9 1371.84 309.081 1373.42 308.245C1375.01 307.408 1376.34 303.305 1376.34 303.305C1376.34 303.305 1374.63 303.715 1371.91 300.422C1369.2 297.128 1370.01 289.826 1370.51 288.079C1371.02 286.333 1370.51 280.467 1370.51 280.467C1370.51 280.467 1370.62 276.348 1369.81 275.011C1369.01 273.675 1367.3 266.068 1367.3 266.068C1367.3 266.068 1367.3 263.495 1365.9 262.159C1364.49 260.823 1363.59 255.572 1363.59 255.572C1362.76 254.26 1362.41 252.697 1362.58 251.148C1362.88 248.575 1360.87 245.798 1360.87 245.798L1357.46 234.681L1354.24 226.348L1352.44 231.183C1352.44 231.183 1351.92 242.499 1352.34 244.861C1352.75 247.223 1353.37 253.505 1353.37 253.505C1353.37 253.505 1351.36 257.619 1352.26 261.117C1353.17 264.616 1352.84 272.134 1352.84 272.134C1352.84 272.134 1353.74 287.664 1352.93 288.9C1352.13 290.136 1352.23 293.225 1352.23 293.225C1352.23 293.225 1356.34 302.273 1355.04 303.51C1353.75 304.746 1354.14 308.139 1354.14 308.139C1354.14 308.139 1356.95 308.139 1355.75 309.376C1354.55 310.612 1353.64 317.093 1353.64 317.093L1341.49 318.551C1341.49 318.551 1340.38 317.114 1338.78 313.29C1337.17 309.465 1339.07 309.896 1340.69 309.481C1342.31 309.065 1341.29 308.045 1339.38 306.808C1337.47 305.572 1338.58 302.794 1338.58 302.794C1338.58 302.794 1341.49 297.754 1340.48 297.344C1339.47 296.934 1339.38 289.831 1339.38 289.831C1339.38 289.831 1337.37 281.414 1337.87 279.131C1338.38 276.847 1336.26 271.418 1336.26 271.418L1335.56 264.937C1333.41 261.259 1332.63 256.911 1333.35 252.689V242.694C1333.35 242.694 1330.54 223.355 1330.14 213.58C1329.88 207.319 1329.95 198.776 1330.04 193.446C1330.09 190.458 1330.14 188.475 1330.14 188.475L1373.52 183.845C1373.52 183.845 1373.48 185.897 1374.31 190.448C1374.75 192.889 1375.45 196.05 1376.54 200.001C1379.65 211.318 1377.74 219.751 1377.74 219.751L1377.34 234.055C1377.34 234.055 1381.15 243.62 1380.35 246.913C1379.87 248.868 1379.6 250.873 1379.54 252.889C1379.54 252.889 1388.08 273.775 1387.17 279.846C1386.27 285.917 1389.98 295.487 1389.98 295.487C1389.98 295.487 1391 302.273 1389.99 304.125Z" fill="#464353"/>
<path opacity="0.05" d="M1365.19 250.527L1378.4 248.723C1378.4 248.723 1370.91 256.545 1365.19 250.527Z" fill="black"/>
<path opacity="0.1" d="M1376.49 235.502C1376.49 235.502 1376.94 240.289 1374.08 242.089C1374.08 242.089 1379.2 241.268 1376.49 235.502Z" fill="black"/>
<path opacity="0.1" d="M1375.67 220.277C1375.67 220.277 1364.63 229.589 1360.62 228.815C1356.6 228.042 1375.67 220.277 1375.67 220.277Z" fill="black"/>
<path opacity="0.1" d="M1348.82 254.894C1348.82 254.894 1340.43 256.845 1340.18 260.297C1339.93 263.748 1348.82 254.894 1348.82 254.894Z" fill="black"/>
<path opacity="0.05" d="M1350.66 297.802C1350.66 297.802 1338.81 300.064 1342.18 301.605C1345.54 303.147 1351.06 304.383 1351.06 304.383C1351.06 304.383 1354.89 304.588 1350.66 297.802Z" fill="black"/>
<g opacity="0.05">
<path opacity="0.05" d="M1339.78 304.057C1339.48 303.866 1339.23 303.609 1339.04 303.305C1338.86 303.001 1338.74 302.657 1338.7 302.3L1338.58 302.515C1338.58 302.515 1337.47 305.293 1339.38 306.524C1339.6 306.666 1339.81 306.808 1340 306.945C1340.35 306.877 1340.73 306.824 1341.1 306.729C1342.71 306.319 1341.69 305.293 1339.78 304.057Z" fill="black"/>
<path opacity="0.05" d="M1355.04 303.231C1355.37 302.926 1355.36 302.137 1355.16 301.126C1354.65 301.921 1354.5 303.162 1354.49 304.104C1354.61 303.777 1354.8 303.48 1355.04 303.231V303.231Z" fill="black"/>
<path opacity="0.05" d="M1353.22 252.047C1352.79 253.264 1352.52 254.537 1352.42 255.83C1352.65 254.937 1352.96 254.067 1353.34 253.231L1353.22 252.047Z" fill="black"/>
<path opacity="0.05" d="M1380.36 246.65C1380.44 246.28 1380.47 245.902 1380.46 245.524C1380.32 246.292 1380.21 247.002 1380.14 247.628C1380.2 247.307 1380.27 247.002 1380.36 246.65Z" fill="black"/>
<path opacity="0.05" d="M1352.94 288.626C1353.1 288.374 1353.2 287.522 1353.24 286.338C1352.87 287.254 1352.67 288.234 1352.66 289.226C1352.73 289.015 1352.82 288.814 1352.94 288.626V288.626Z" fill="black"/>
<path opacity="0.05" d="M1355.4 308.029C1354.78 310.092 1354.32 312.203 1354.02 314.342L1341.88 315.778C1341.88 315.778 1340.77 314.342 1339.16 310.517C1339.03 310.222 1338.92 309.92 1338.82 309.612C1338.09 309.954 1337.79 310.728 1338.76 312.984C1340.36 316.793 1341.48 318.245 1341.48 318.245L1353.62 316.804C1353.62 316.804 1354.53 310.322 1355.73 309.086C1356.34 308.492 1355.96 308.181 1355.4 308.029Z" fill="black"/>
<path opacity="0.05" d="M1339.38 289.552C1339.38 289.552 1339.48 296.649 1340.49 297.06C1341 295.887 1341.33 294.771 1340.88 294.587C1339.85 294.177 1339.78 287.075 1339.78 287.075C1339.78 287.075 1337.77 278.657 1338.27 276.374C1338.78 274.091 1336.67 268.661 1336.67 268.661L1335.96 262.18C1333.81 258.502 1333.03 254.154 1333.75 249.933V239.937C1333.75 239.937 1330.94 220.598 1330.54 210.823C1330.28 204.562 1330.35 196.019 1330.44 190.689C1330.44 189.727 1330.47 188.874 1330.48 188.154L1330.14 188.191C1330.14 188.191 1330.08 190.169 1330.04 193.162C1329.95 198.491 1329.88 207.035 1330.14 213.29C1330.54 223.065 1333.35 242.409 1333.35 242.409V252.405C1332.63 256.626 1333.41 260.971 1335.56 264.647L1336.26 271.129C1336.26 271.129 1338.37 276.579 1337.87 278.846C1337.36 281.114 1339.38 289.552 1339.38 289.552Z" fill="black"/>
<path opacity="0.05" d="M1375.13 313.006C1374.15 311.542 1373.49 309.873 1373.21 308.118C1371.97 309.265 1373.39 313.716 1374.75 315.483C1376.15 317.335 1386.6 318.466 1388.61 315.068V313.111C1385.88 315.862 1376.46 314.758 1375.13 313.006Z" fill="black"/>
<path opacity="0.05" d="M1390.4 301.379C1389.85 302.367 1389.38 303.4 1388.99 304.467V305.924C1389.22 305.398 1389.54 304.693 1390.02 303.862C1390.33 303.052 1390.49 302.183 1390.46 301.31C1390.46 301.31 1390.41 301.358 1390.4 301.379Z" fill="black"/>
<path opacity="0.05" d="M1375.75 303.005C1376.13 302.212 1376.46 301.395 1376.74 300.558C1376.74 300.558 1375.03 300.969 1372.32 297.675C1370.35 295.281 1370.24 290.757 1370.52 287.8C1370 289.552 1369.21 296.855 1371.92 300.148C1373.69 302.3 1375.03 302.868 1375.75 303.005Z" fill="black"/>
<path opacity="0.05" d="M1370.51 280.188C1370.69 282.215 1370.76 284.251 1370.71 286.285C1370.76 285.964 1370.83 285.646 1370.92 285.333C1371.43 283.581 1370.92 277.721 1370.92 277.721C1370.92 277.721 1371.02 273.601 1370.21 272.265C1369.41 270.929 1367.73 263.311 1367.73 263.311C1367.73 263.311 1367.73 260.738 1366.32 259.402C1364.91 258.066 1364.01 252.816 1364.01 252.816C1363.18 251.506 1362.82 249.943 1362.98 248.391C1363.29 245.819 1361.28 243.041 1361.28 243.041L1357.86 231.93L1354.65 223.596L1352.84 228.436C1352.84 228.436 1352.84 229.047 1352.77 230.015L1354.24 226.085L1357.46 234.402L1360.87 245.513C1360.87 245.513 1362.88 248.291 1362.58 250.864C1362.41 252.416 1362.78 253.979 1363.61 255.288C1363.61 255.288 1364.51 260.549 1365.92 261.875C1367.32 263.201 1367.32 265.784 1367.32 265.784C1367.32 265.784 1369.03 273.396 1369.83 274.727C1370.63 276.058 1370.51 280.188 1370.51 280.188Z" fill="black"/>
</g>
<path d="M1378.94 90.9006L1378.19 94.6569L1378.24 96.3299L1378.27 97.5609L1374.08 98.0028L1373.61 97.1137C1372.74 95.5039 1370.94 92.2316 1370.36 91.7266C1369.58 91.0637 1368.2 80.6155 1369.85 81.2363C1370.86 81.6366 1371.69 82.407 1372.18 83.3985C1372.18 83.3985 1380.43 84.3665 1378.94 90.9006Z" fill="#FFCDD3"/>
<path opacity="0.1" d="M1378.27 97.5609L1374.08 98.0028L1373.61 97.1137C1374.17 96.4564 1374.94 96.0195 1375.78 95.8775C1376.63 95.7356 1377.49 95.8973 1378.23 96.3351L1378.27 97.5609Z" fill="black"/>
<path d="M1379.32 99.5969L1373.8 100.907L1373.68 100.065L1373.37 97.7976C1373.37 97.7976 1375.56 94.8094 1378.72 97.0506L1379 98.2027L1379.32 99.5969Z" fill="#00CB54"/>
<path d="M1289.82 91.3109L1283.91 94.5516L1283.4 93.4153C1282.84 92.2105 1282 90.3955 1281.77 89.7326C1281.42 88.7331 1278.96 87.4704 1278.96 87.4704C1272.8 81.4257 1280.15 76.2279 1280.15 76.2279C1284.04 68.205 1288.36 78.953 1288.36 78.953C1288.36 78.953 1288.97 84.619 1288.54 84.9978C1288.12 85.3766 1288.12 86.9286 1288.12 86.9286C1288.68 88.0405 1289.15 89.1962 1289.54 90.385C1289.72 90.9584 1289.82 91.3109 1289.82 91.3109Z" fill="#FFCDD3"/>
<path opacity="0.1" d="M1289.82 91.3109L1283.91 94.5516L1283.4 93.4153C1284.23 92.6998 1287.19 90.2587 1288.16 90.3587C1288.62 90.4179 1289.09 90.4303 1289.55 90.3955C1289.72 90.9584 1289.82 91.3109 1289.82 91.3109Z" fill="black"/>
<path d="M1290.42 93.1365L1283.79 96.4824L1283.65 95.0251L1283.56 94.015C1283.56 94.015 1287.4 90.6428 1288.54 90.7743C1289.11 90.8595 1289.69 90.8595 1290.27 90.7743L1290.34 91.9949L1290.42 93.1365Z" fill="#00CB54"/>
<path d="M1362.88 115.853C1362.88 115.853 1333.97 119.194 1339.38 117.395C1343.14 116.137 1344.63 113.712 1344.94 110.976C1345.2 108.698 1344.63 106.241 1343.87 104.137C1343.19 102.27 1342.33 100.478 1341.3 98.7867C1341.3 98.7867 1363.38 86.3394 1358.97 97.6556C1358.29 99.3672 1357.87 101.175 1357.72 103.016C1357.59 104.847 1357.78 106.686 1358.29 108.446C1359.12 111.301 1360.71 113.864 1362.88 115.853V115.853Z" fill="#FFCDD3"/>
<path opacity="0.1" d="M1358.96 97.6398C1358.28 99.3514 1357.86 101.159 1357.7 103.001C1355.63 104.795 1353.34 104.674 1350.41 104.674C1348.16 104.674 1345.67 105.231 1343.87 104.121C1343.19 102.254 1342.33 100.462 1341.3 98.7709C1341.3 98.7709 1363.38 86.3236 1358.96 97.6398Z" fill="black"/>
<path d="M1350.02 105.463C1356.62 105.463 1361.97 99.9818 1361.97 93.2206C1361.97 86.4595 1356.62 80.9785 1350.02 80.9785C1343.42 80.9785 1338.07 86.4595 1338.07 93.2206C1338.07 99.9818 1343.42 105.463 1350.02 105.463Z" fill="#FFCDD3"/>
<path opacity="0.1" d="M1362.88 115.853C1362.88 115.853 1333.97 119.194 1339.38 117.394C1343.14 116.137 1344.63 113.712 1344.94 110.976C1346.38 109.398 1349.27 108.225 1351.11 107.614C1352.8 107.031 1354.63 106.999 1356.34 107.525C1357.02 107.733 1357.66 108.038 1358.25 108.43C1359.09 111.295 1360.69 113.865 1362.88 115.853V115.853Z" fill="black"/>
<path opacity="0.1" d="M1379.32 99.5969L1373.8 100.907L1373.68 100.065C1374.27 99.2325 1375.1 98.607 1376.05 98.2738C1377 97.9405 1378.03 97.9157 1379 98.2027L1379.32 99.5969Z" fill="black"/>
<path opacity="0.1" d="M1290.42 93.1364L1283.79 96.4824L1283.65 95.0251C1285.8 93.8423 1288.03 92.8275 1290.33 91.9896L1290.42 93.1364Z" fill="black"/>
<path opacity="0.1" d="M1374.31 190.458C1363.11 192.289 1347.19 194.625 1344.66 193.836C1342.56 193.183 1335.86 193.252 1330.04 193.457C1330.09 190.469 1330.14 188.485 1330.14 188.485L1373.52 183.856C1373.52 183.856 1373.48 185.907 1374.31 190.458Z" fill="black"/>
<path d="M1385.47 187.764C1385.47 187.764 1348.62 194.246 1344.66 193.025C1340.71 191.805 1320.4 193.125 1320.4 193.125C1311.26 199.402 1315.07 190.142 1315.07 190.142C1315.07 190.142 1314.27 185.308 1315.37 181.399C1316.12 178.529 1316.62 175.601 1316.89 172.645C1316.89 172.645 1316.69 166.468 1317.79 165.027C1318.9 163.585 1320.21 153.3 1320.21 153.3C1320.21 153.3 1321.21 146.303 1321.11 144.762C1321.01 143.22 1321.41 138.896 1321.41 138.896L1322.72 131.694C1315.18 130.668 1292.29 116.263 1292.29 116.263C1291.18 111.429 1282.65 100.112 1282.65 100.112C1282.52 99.1608 1282.29 98.2281 1281.94 97.3346C1281.34 95.688 1290.38 92.3947 1290.38 92.3947C1290.38 92.3947 1297.11 100.812 1298.51 103.095C1299.92 105.379 1304.74 109.577 1304.74 109.577C1305.49 109.498 1306.24 109.599 1306.95 109.871L1307.06 109.908C1308.68 110.557 1310.19 111.444 1311.56 112.539C1313.82 112.484 1316.02 113.333 1317.68 114.906C1317.68 114.906 1321.79 114.285 1322.51 115.006C1323.22 115.727 1326.72 115.006 1326.72 115.006C1326.72 115.006 1330.24 107.394 1332.55 109.603C1334.86 111.813 1344.66 111.707 1344.66 111.707C1345.97 109.929 1349.14 108.656 1351.13 108.025C1352.83 107.443 1354.66 107.412 1356.37 107.935C1357.11 108.161 1357.8 108.517 1358.42 108.988L1364.39 114.953C1364.39 114.953 1366.09 112.686 1365.89 112.176C1365.69 111.665 1367.9 111.25 1367.9 111.25C1367.9 111.25 1370.81 110.324 1371.91 110.013C1373.02 109.703 1374.03 110.929 1374.12 111.039C1374.09 110.908 1373.33 108.409 1373.61 106.515C1373.89 104.621 1372.4 102.832 1372.4 102.832C1375.91 93.9835 1383.85 101.391 1383.85 101.391C1383.85 101.391 1384.75 106.226 1383.95 108.077C1383.15 109.929 1384.75 113.838 1384.55 114.869C1384.35 115.9 1384.96 117.647 1384.96 119.604C1384.96 121.561 1383.93 125.26 1383.35 126.906C1382.77 128.553 1377.93 132.257 1377.93 132.257C1377.93 132.257 1377.63 138.122 1375.51 141.516C1373.4 144.909 1374.73 156.515 1374.73 156.515C1374.73 156.515 1376.74 165.569 1379.25 168.452C1381.76 171.335 1385.47 187.764 1385.47 187.764Z" fill="#3F3D56"/>
<path opacity="0.1" d="M1331.75 120.067C1331.75 120.067 1330.64 116.674 1329.63 116.384C1328.64 116.008 1327.66 115.561 1326.72 115.048L1327.37 113.78C1327.37 113.78 1331.14 114.832 1331.75 115.974C1332.35 117.116 1331.75 120.067 1331.75 120.067Z" fill="black"/>
<path opacity="0.1" d="M1311.56 112.56C1311.36 113.612 1302.42 114.512 1302.42 114.512L1306.94 109.871L1307.05 109.913C1308.67 110.566 1310.19 111.458 1311.56 112.56V112.56Z" fill="black"/>
<path d="M1285.7 99.2602C1286.14 99.2602 1286.5 98.8927 1286.5 98.4395C1286.5 97.9862 1286.14 97.6188 1285.7 97.6188C1285.25 97.6188 1284.9 97.9862 1284.9 98.4395C1284.9 98.8927 1285.25 99.2602 1285.7 99.2602Z" fill="#575988"/>
<path d="M1286.72 100.907C1287.17 100.907 1287.52 100.539 1287.52 100.086C1287.52 99.6328 1287.17 99.2654 1286.72 99.2654C1286.28 99.2654 1285.92 99.6328 1285.92 100.086C1285.92 100.539 1286.28 100.907 1286.72 100.907Z" fill="#575988"/>
<path d="M1287.73 102.427C1288.17 102.427 1288.53 102.06 1288.53 101.607C1288.53 101.153 1288.17 100.786 1287.73 100.786C1287.29 100.786 1286.93 101.153 1286.93 101.607C1286.93 102.06 1287.29 102.427 1287.73 102.427Z" fill="#575988"/>
<path d="M1288.78 104.069C1289.23 104.069 1289.58 103.701 1289.58 103.248C1289.58 102.795 1289.23 102.427 1288.78 102.427C1288.34 102.427 1287.98 102.795 1287.98 103.248C1287.98 103.701 1288.34 104.069 1288.78 104.069Z" fill="#575988"/>
<path d="M1383.45 103.827C1383.81 103.827 1384.1 103.527 1384.1 103.158C1384.1 102.789 1383.81 102.49 1383.45 102.49C1383.09 102.49 1382.8 102.789 1382.8 103.158C1382.8 103.527 1383.09 103.827 1383.45 103.827Z" fill="#575988"/>
<path d="M1383.55 105.347C1383.91 105.347 1384.2 105.048 1384.2 104.679C1384.2 104.31 1383.91 104.011 1383.55 104.011C1383.19 104.011 1382.9 104.31 1382.9 104.679C1382.9 105.048 1383.19 105.347 1383.55 105.347Z" fill="#575988"/>
<path d="M1383.64 106.862C1384 106.862 1384.29 106.563 1384.29 106.194C1384.29 105.825 1384 105.526 1383.64 105.526C1383.28 105.526 1382.99 105.825 1382.99 106.194C1382.99 106.563 1383.28 106.862 1383.64 106.862Z" fill="#575988"/>
<path opacity="0.1" d="M1331.78 147.95C1331.68 147.829 1354.33 177.116 1371.9 160.192C1371.91 160.197 1344.15 164.054 1331.78 147.95Z" fill="black"/>
<path opacity="0.1" d="M1318.79 163.175C1318.79 163.175 1332.34 163.554 1333.75 167.547V171.703C1333.37 171.922 1332.93 172.037 1332.49 172.037C1332.05 172.037 1331.62 171.922 1331.23 171.703C1329.87 170.945 1321.68 166.684 1318.79 168.736V163.175Z" fill="black"/>
<path d="M1319.04 163.175C1319.04 163.175 1332 163.538 1333.35 167.347V171.303C1332.98 171.513 1332.57 171.623 1332.15 171.623C1331.72 171.623 1331.31 171.513 1330.94 171.303C1329.63 170.588 1321.8 166.521 1319.04 168.478V163.175Z" fill="#3F3D56"/>
<path opacity="0.1" d="M1326.18 133.04C1327.57 136.322 1329.33 139.422 1331.44 142.273C1333.73 145.425 1336.5 148.173 1339.65 150.412C1339.65 150.412 1326.41 134.945 1326.18 133.04Z" fill="black"/>
<path opacity="0.1" d="M1321.75 116.916C1321.75 116.916 1324.01 126.911 1329.84 130.305L1321.75 116.916Z" fill="black"/>
<path opacity="0.1" d="M1318.29 117.926C1318.23 117.742 1316.28 125.817 1325.79 130.305C1325.79 130.305 1321.75 128.9 1318.29 117.926Z" fill="black"/>
<path opacity="0.1" d="M1377.44 111.223C1377.29 111.223 1382.13 114.38 1383.45 115.853C1383.45 115.853 1380.3 111.013 1377.44 111.223Z" fill="black"/>
<path d="M1346.79 104.316C1346.79 104.583 1346.85 104.847 1346.96 105.091C1347.06 105.334 1347.22 105.553 1347.41 105.732C1347.6 105.912 1347.83 106.048 1348.08 106.133C1348.33 106.218 1348.59 106.25 1348.85 106.226C1352.49 106.457 1356.28 106.62 1359.63 105.173C1360.26 104.944 1360.82 104.561 1361.27 104.058C1361.87 103.306 1361.99 102.285 1362.23 101.349C1362.7 99.5179 1363.71 97.8923 1364.43 96.1509C1365.66 93.2089 1366.07 89.9781 1365.62 86.8128C1365.52 85.8426 1365.21 84.908 1364.7 84.0824C1363.74 82.6672 1361.98 82.0938 1360.7 80.968C1359.42 79.8421 1358.6 78.1218 1357.1 77.2853C1355.76 76.5172 1354.11 76.6119 1352.6 76.875C1349.62 77.3934 1346.76 78.4916 1344.18 80.1104C1343.32 80.6365 1342.37 81.2836 1341.37 81.089C1340.5 80.9206 1339.86 80.1683 1339.32 79.4633C1338.61 81.1469 1338.32 82.9785 1338.46 84.8032C1338.5 85.0709 1338.49 85.3434 1338.43 85.6081C1338.31 85.9281 1338.12 86.2168 1337.87 86.4551C1336.97 87.5073 1336.41 89.2171 1337.3 90.3008C1337.69 90.769 1338.28 91.0268 1338.66 91.5056C1339.33 92.3631 1339.1 93.6099 1339.09 94.7042C1339.05 95.0863 1339.15 95.4696 1339.36 95.7879C1339.55 95.9735 1339.79 96.1044 1340.05 96.168C1340.3 96.2316 1340.57 96.2257 1340.83 96.1509C1341.34 95.994 1341.87 95.9421 1342.4 95.9984C1342.96 96.1839 1343.44 96.5541 1343.77 97.0506C1345.43 99.2654 1346.08 101.675 1346.79 104.316Z" fill="#2D293D"/>
<g opacity="0.1">
<path opacity="0.1" d="M1361.7 103.127C1361.25 103.63 1360.68 104.013 1360.06 104.242C1356.69 105.678 1352.9 105.515 1349.27 105.294C1348.88 105.298 1348.5 105.21 1348.15 105.037C1347.59 104.705 1347.38 104.011 1347.21 103.379C1346.5 100.749 1345.85 98.3343 1344.17 96.1405C1343.84 95.6344 1343.36 95.2547 1342.8 95.062C1342.27 95.0109 1341.74 95.0627 1341.23 95.2146C1340.98 95.29 1340.71 95.2967 1340.45 95.234C1340.19 95.1714 1339.95 95.0414 1339.76 94.8568C1339.55 94.5385 1339.45 94.1552 1339.49 93.7731C1339.49 92.6683 1339.73 91.432 1339.06 90.5744C1338.68 90.0957 1338.09 89.8379 1337.7 89.3644C1337.45 89.0154 1337.3 88.603 1337.26 88.1713C1337.22 87.7396 1337.29 87.3047 1337.47 86.9128C1336.83 87.965 1336.56 89.2855 1337.3 90.1904C1337.69 90.6586 1338.28 90.9164 1338.66 91.3951C1339.33 92.2579 1339.1 93.4995 1339.09 94.5938C1339.05 94.9753 1339.14 95.3589 1339.35 95.6775C1339.55 95.8639 1339.78 95.9954 1340.04 96.059C1340.3 96.1226 1340.57 96.1163 1340.83 96.0405C1341.34 95.8835 1341.87 95.8317 1342.4 95.8879C1342.96 96.0734 1343.44 96.4436 1343.77 96.9401C1345.45 99.1339 1346.1 101.543 1346.81 104.184C1346.9 104.834 1347.21 105.429 1347.7 105.852C1348.05 106.026 1348.44 106.112 1348.83 106.105C1352.47 106.336 1356.27 106.504 1359.62 105.052C1360.24 104.824 1360.81 104.441 1361.26 103.937C1361.49 103.641 1361.66 103.306 1361.77 102.948C1361.78 103.016 1361.74 103.074 1361.7 103.127Z" fill="black"/>
<path opacity="0.1" d="M1338.46 85.2872C1338.62 85.1078 1338.74 84.8965 1338.82 84.6664C1338.87 84.4002 1338.87 84.1277 1338.82 83.8615C1338.72 82.3616 1338.91 80.8562 1339.38 79.4318L1339.32 79.3529C1338.61 81.0339 1338.32 82.8644 1338.46 84.6875C1338.47 84.8871 1338.47 85.0876 1338.46 85.2872V85.2872Z" fill="black"/>
</g>
<path opacity="0.1" d="M1344.66 111.734C1344.66 111.734 1359.59 113.764 1360.93 111.465Z" fill="black"/>
<path opacity="0.1" d="M1373.68 105.405C1373.68 105.405 1381.98 105.405 1383.8 108.604Z" fill="black"/>
<path d="M1420.11 389.573C1417.65 391.827 1414.45 393.052 1411.15 393.003C1410.31 393.003 1409.14 393.166 1409.14 394.029C1409.16 394.282 1409.24 394.525 1409.38 394.734C1410.42 396.513 1412.07 397.837 1414 398.453C1415.8 399.011 1417.72 398.916 1419.6 398.816L1425.07 398.527C1426.09 398.469 1427.12 398.416 1428.15 398.285C1429.17 398.153 1430.29 397.938 1431.37 397.759C1434 397.375 1436.67 397.248 1439.33 397.38C1440.04 397.406 1440.87 397.38 1441.29 396.854C1441.71 396.328 1441.5 395.323 1441.34 394.534C1441.01 392.908 1441.34 391.204 1441.04 389.573C1440.52 386.711 1438.1 384.517 1435.45 383.481C1432.99 382.523 1428.62 381.424 1426.29 383.023C1423.83 384.701 1422.33 387.505 1420.11 389.573Z" fill="#3F3D56"/>
<path d="M1425.54 293.688C1426.03 296.039 1428.25 297.838 1428.31 300.237C1428.37 302.163 1427.03 303.778 1426.06 305.425C1425.15 307.13 1424.38 308.911 1423.77 310.749C1421.95 315.533 1419.69 320.131 1417.03 324.48C1415.75 326.584 1414.31 328.83 1414.6 331.277C1414.8 332.421 1415.2 333.52 1415.77 334.528L1419.62 342.367C1420.46 343.932 1421.12 345.594 1421.58 347.317C1421.92 348.806 1421.95 350.348 1422.14 351.863C1422.75 356.671 1424.95 361.511 1423.65 366.172C1423.54 366.572 1423.13 367.056 1422.82 366.777C1424.1 369.213 1425.12 371.665 1425.02 374.427C1424.97 375.874 1424.54 377.383 1425.06 378.73C1425.28 379.293 1425.66 379.819 1425.66 380.424C1425.66 380.824 1425.48 381.198 1425.44 381.587C1425.33 382.697 1426.32 383.623 1427.36 383.975C1428.39 384.328 1429.51 384.302 1430.56 384.622C1432.56 385.238 1433.99 387.006 1435.69 388.231C1437.43 389.462 1439.49 390.147 1441.61 390.204C1441.91 390.237 1442.21 390.175 1442.48 390.025C1442.63 389.89 1442.75 389.724 1442.84 389.537C1442.92 389.35 1442.96 389.147 1442.96 388.942C1443.06 387.959 1442.91 386.968 1442.54 386.056C1442.17 385.144 1441.59 384.339 1440.85 383.712C1440.52 383.503 1440.25 383.214 1440.06 382.871C1439.97 382.567 1439.94 382.244 1439.99 381.929C1440.3 377.617 1440.22 373.285 1439.76 368.987C1439.56 367.625 1439.49 366.244 1439.56 364.868C1439.67 363.721 1440.01 362.584 1439.89 361.443C1439.76 360.301 1439.19 359.26 1438.86 358.16C1438.26 356.203 1438.43 354.099 1438.35 352.052C1438.24 348.496 1437.45 345.003 1436.66 341.53C1436.34 340.168 1436 338.742 1435.06 337.732C1434.26 336.874 1432.96 336.054 1433.27 334.912C1433.43 334.491 1433.68 334.11 1434 333.791C1434.37 333.313 1434.65 332.763 1434.8 332.173C1434.96 331.583 1435 330.967 1434.92 330.361C1435.25 330.45 1435.61 330.415 1435.93 330.263C1436.24 330.112 1436.5 329.853 1436.65 329.53C1442.9 326.505 1447.94 320.455 1450.19 313.747C1450.33 313.249 1450.53 312.774 1450.8 312.338C1451.38 311.506 1452.39 311.149 1453.28 310.691C1456.08 309.244 1458.02 306.535 1459.8 303.883C1460.82 302.347 1461.85 300.758 1462.31 298.949C1462.56 297.778 1462.67 296.583 1462.66 295.387L1462.82 289.205C1462.85 288.798 1462.81 288.388 1462.7 287.995C1462.55 287.628 1462.33 287.296 1462.05 287.017C1460.34 285.166 1458.1 283.927 1455.65 283.481C1454.01 283.182 1452.33 283.239 1450.67 283.097C1447.44 282.824 1444.26 281.798 1441.03 282.045C1435.96 282.429 1431.45 286.028 1429.06 290.626C1428.22 292.246 1427.34 293.656 1425.54 293.688Z" fill="#464353"/>
<path d="M1397.4 253.494C1397.47 254.449 1397.34 255.407 1397.03 256.309C1396.64 257.172 1395.65 257.845 1394.78 257.493C1395.04 256.888 1394.35 256.198 1393.7 256.272C1393.38 256.347 1393.08 256.5 1392.84 256.719C1392.59 256.937 1392.4 257.213 1392.28 257.524C1391.85 258.408 1391.7 259.408 1391.87 260.381C1392.07 261.591 1392.75 262.753 1392.57 263.969C1392.43 264.979 1391.71 265.984 1392.09 266.92C1392.34 267.348 1392.65 267.733 1393.02 268.062C1393.53 268.702 1393.78 269.517 1393.71 270.34C1393.65 271.162 1393.28 271.928 1392.69 272.481L1402.4 272.681C1402.05 274.343 1402.78 276.043 1403.61 277.521C1405.94 281.585 1409.16 285.041 1413.01 287.618C1416.86 290.195 1421.25 291.822 1425.82 292.372C1425.57 292.52 1425.36 292.722 1425.2 292.964C1425.03 293.206 1424.93 293.482 1424.88 293.771C1424.84 294.061 1424.86 294.357 1424.94 294.638C1425.02 294.919 1425.16 295.179 1425.35 295.397C1426.14 296.202 1427.48 296.102 1428.47 295.582C1429.46 295.061 1430.24 294.198 1431.14 293.53C1432.74 292.372 1434.68 291.834 1436.63 292.015C1437.85 292.136 1439.03 292.541 1440.25 292.604C1443.85 292.799 1446.93 290.147 1450.39 289.063C1452.91 288.269 1455.77 288.269 1457.89 286.654C1458.8 285.959 1459.55 284.818 1459.28 283.692C1459.06 283.045 1458.71 282.452 1458.26 281.951C1457.04 280.335 1456.32 278.394 1455.45 276.558C1453.72 272.923 1451.34 269.654 1448.43 266.92C1446.23 264.954 1443.9 263.147 1441.46 261.512C1440.87 261.066 1440.24 260.676 1439.58 260.349C1438.73 259.965 1437.79 259.781 1437.02 259.297C1435.88 258.561 1435.22 257.261 1434.34 256.214C1432.41 253.91 1429.46 252.852 1427.08 251.043C1425.49 249.827 1424.08 248.228 1422.18 247.644C1421.26 247.355 1420.28 247.334 1419.36 247.05C1417.25 246.397 1415.72 244.488 1413.67 243.714C1412.04 243.104 1410.24 243.262 1408.53 243.046C1406.6 242.803 1404.76 242.084 1403.16 240.952C1402.65 240.523 1402.07 240.178 1401.45 239.932C1398.85 239.121 1398.64 244.088 1398.37 245.808C1398.03 248.365 1397.4 250.906 1397.4 253.494Z" fill="#00CB54"/>
<path d="M1399.94 270.15C1400.37 275.001 1396.8 279.699 1397.84 284.449C1398.06 285.46 1398.49 286.422 1398.64 287.448C1399.08 290.263 1397.44 292.93 1395.87 295.287L1382.42 315.515C1381.88 316.403 1381.23 317.219 1380.5 317.946C1377.93 320.287 1374.07 320.05 1370.69 320.744C1368.31 321.244 1366.07 322.26 1364.11 323.722C1364.03 323.792 1363.97 323.894 1363.95 324.007C1363.94 324.121 1363.97 324.235 1364.03 324.327C1364.59 325.105 1365.33 325.728 1366.18 326.139C1367.03 326.55 1367.97 326.735 1368.92 326.679C1369.27 327.152 1368.92 327.857 1368.43 328.199C1367.71 328.725 1366.71 328.846 1366.57 330.104C1366.52 330.541 1366.61 330.982 1366.82 331.366C1367.36 332.214 1368.2 332.813 1369.17 333.039C1373.82 334.502 1378.86 331.934 1382.34 328.446C1385.83 324.958 1388.33 320.555 1391.75 317.009C1393.65 315.042 1395.8 313.363 1397.75 311.459C1401.64 307.655 1404.67 303.041 1407.59 298.417C1408.47 297.023 1409.36 295.592 1409.72 293.977C1410.09 292.362 1409.92 290.726 1410.33 289.163C1410.88 287.117 1412.34 285.481 1413.56 283.766C1415.95 280.399 1417.54 276.279 1417.22 272.128C1416.91 267.978 1414.4 263.885 1410.58 262.475C1409.39 261.992 1408.09 261.911 1406.86 262.243C1405.29 262.738 1404.13 264.063 1403.07 265.337L1400.5 268.356C1399.87 269.025 1399.38 269.813 1399.06 270.676C1398.89 271.111 1398.85 271.586 1398.94 272.043C1399.03 272.5 1399.25 272.921 1399.57 273.254" fill="#FBBEBE"/>
<path d="M1406.76 250.253C1404.99 250.359 1403.05 250.538 1401.8 251.832C1401.27 252.426 1400.85 253.105 1400.54 253.841C1399.33 256.372 1398.15 259.018 1398.06 261.838C1397.99 264.09 1398.63 266.294 1398.96 268.519C1399.24 270.371 1398.54 272.26 1398.4 274.133C1400.6 273.444 1403.49 272.507 1405.48 271.344C1406.84 270.55 1408.14 269.645 1409.62 269.14C1411.73 268.419 1415.27 269.666 1417.28 270.666C1417.39 269.224 1416.33 266.71 1416.44 265.263C1416.46 264.654 1416.56 264.051 1416.76 263.474C1417.06 262.864 1417.41 262.285 1417.82 261.743C1418.58 260.47 1418.94 258.982 1418.82 257.492C1418.71 256.001 1418.14 254.586 1417.2 253.447C1415.42 251.395 1412.63 250.627 1409.97 250.29C1408.29 250.091 1406.6 250.032 1404.92 250.111" fill="#00CB54"/>
</g>
<defs>
<linearGradient id="paint0_linear" x1="1333.67" y1="330.34" x2="1333.67" y2="73.2607" gradientUnits="userSpaceOnUse">
<stop stop-color="#808080" stop-opacity="0.25"/>
<stop offset="0.54" stop-color="#808080" stop-opacity="0.12"/>
<stop offset="1" stop-color="#808080" stop-opacity="0.1"/>
</linearGradient>
<clipPath id="clip0">
<rect width="539" height="357" fill="white" transform="translate(971 43)"/>
</clipPath>
</defs>
</svg>
